<?xml version="1.0" standalone="no"?>
<!DOCTYPE svg PUBLIC "-//W3C//DTD SVG 1.1//EN" "http://www.w3.org/Graphics/SVG/1.1/DTD/svg11.dtd" >
<svg xmlns="http://www.w3.org/2000/svg" xmlns:xlink="http://www.w3.org/1999/xlink" version="1.1">
<metadata>
Created by FontForge 20170731 at Sat Apr  9 16:14:18 2022
 By Aleksey,,,
Coves &#38; Coves  Light (c) Jack Harvatt 2016. All Rights Reserved
</metadata>
<defs>
<font id="Coves-Light" horiz-adv-x="1329" >
  <font-face 
    font-family="Coves Light"
    font-weight="300"
    font-stretch="normal"
    units-per-em="2048"
    panose-1="2 0 5 0 0 0 0 0 0 0"
    ascent="1638"
    descent="-410"
    x-height="868"
    cap-height="1433"
    bbox="-150 -562 1678 1909"
    underline-thickness="100"
    underline-position="-355"
    unicode-range="U+000D-25FC"
  />
<missing-glyph horiz-adv-x="748" 
d="M68 0v1365h544v-1365h-544zM544 68v1229h-408v-1229h408z" />
    <glyph glyph-name=".notdef" horiz-adv-x="748" 
d="M68 0v1365h544v-1365h-544zM544 68v1229h-408v-1229h408z" />
    <glyph glyph-name=".null" horiz-adv-x="0" 
 />
    <glyph glyph-name="uni000D" unicode="&#xd;" horiz-adv-x="508" 
 />
    <glyph glyph-name="uni001D" horiz-adv-x="0" 
 />
    <glyph glyph-name="space" unicode=" " horiz-adv-x="508" 
 />
    <glyph glyph-name="exclam" unicode="!" horiz-adv-x="491" 
d="M194 117q20 20 48 20t48 -20t20 -49q0 -28 -20 -48t-48 -20t-48 20t-20 48q0 29 20 49zM195 1277q0 13 14 13h66q14 0 14 -13v-962q0 -14 -14 -14h-66q-14 0 -14 14v962z" />
    <glyph glyph-name="quotedbl" unicode="&#x22;" horiz-adv-x="376" 
d="M108 1518q0 13 14 13h21q14 0 14 -13v-232q0 -14 -14 -14h-21q-14 0 -14 14v232zM211 1518q0 13 13 13h22q13 0 13 -13v-232q0 -14 -13 -14h-22q-13 0 -13 14v232z" />
    <glyph glyph-name="numbersign" unicode="#" horiz-adv-x="1133" 
d="M72 473q-2 -15 14 -15h190l-29 -362q-1 -15 14 -15h67q12 0 13 13l29 364h354l-29 -362q-1 -15 14 -15h67q12 0 13 13l29 364h186q12 0 13 13l6 67q1 15 -14 15h-183l27 353h186q13 0 14 13l5 67q2 15 -14 15h-183l27 337q2 15 -14 15h-67q-13 0 -14 -13l-26 -339h-354
l27 337q2 15 -14 15h-67q-13 0 -14 -13l-26 -339h-193q-13 0 -14 -13l-5 -67q-1 -15 14 -15h190l-28 -353h-192q-13 0 -14 -13zM378 553l28 353h353l-28 -353h-353z" />
    <glyph glyph-name="dollar" unicode="$" horiz-adv-x="771" 
d="M75 328q13 -10 43 -28q49 -27 100 -42q32 -8 67 -13l10 -1v-80q0 -14 14 -14h67q13 0 13 14v80q14 1 49 7q52 11 85 29q48 26 78 65q34 43 44 96l2 14l2 14q0 7 1 12v5v6v3v5v7l-1 13q0 9 -1 14l-3 14q-11 56 -50 100q-30 35 -81 68q-32 21 -87 46l-38 17v328
q15 -1 38 -5q41 -9 80 -30q10 -5 28 -17q20 -14 22 -16q9 -8 18 1l42 40q10 10 -1 21q-4 3 -9 8q-16 12 -25 18q-22 14 -34 21q-50 26 -103 38q-33 7 -56 8v74q0 13 -13 13h-67q-14 0 -14 -13v-77q-41 -6 -72 -18q-50 -20 -80 -52q-37 -36 -51 -90l-3 -13l-2 -13
q-3 -15 -3 -25v-13v-4v-1v-3v-5l1 -11l2 -15q1 -6 7 -29q1 -3 5 -13l6 -13q4 -8 14 -24l9 -11q3 -5 9 -11q33 -36 81 -65q35 -20 77 -39v-385q-17 1 -51 10q-45 13 -80 34q-15 8 -29 19q-18 13 -19 14q-10 7 -19 0l-48 -46q-10 -10 0 -20q8 -7 26 -21zM172 959v5v3v8
q0 3 2 17l1 8l2 8q7 30 29 52q19 19 49 31q16 7 40 12v-281q-14 7 -32 17q-39 24 -60 47q-3 2 -6 6l-5 7l-4 7l-4 7l-3 7q-1 3 -3 7l-2 8l-2 6l-1 7zM389 337v343q100 -45 137 -90q23 -29 30 -61l1 -8q1 -3 1 -9l1 -8v-5v-3v-5l-1 -6v-10l-2 -8l-1 -7q-13 -67 -74 -98
q-25 -13 -61 -21z" />
    <glyph glyph-name="percent" unicode="%" horiz-adv-x="979" 
d="M90 906q84 -92 209 -101q12 -2 14 12l9 66q1 15 -12 16q-100 6 -161 84q-64 79 -43 181q15 69 67 116q53 49 123 56q36 4 70 -3q15 -3 16 12l9 66q2 14 -11 15q-63 12 -123 -1q-107 -23 -177 -107q-72 -87 -73 -193q-3 -125 83 -219zM302 16q-1 -16 14 -16h66q12 0 14 12
l185 1404q1 16 -14 16h-66q-13 0 -14 -12zM491 21q-1 -13 11 -15q45 -9 91 -4q107 10 186 86t93 183q19 136 -68 242q-85 103 -220 114q-13 1 -14 -12l-9 -67q-1 -13 14 -15q86 -6 146 -69t60 -150q0 -91 -64 -155q-65 -65 -156 -65q-20 0 -45 5q-14 3 -16 -12z" />
    <glyph glyph-name="ampersand" unicode="&#x26;" horiz-adv-x="1145" 
d="M120 557q44 112 142 186q38 29 88 52q-53 75 -64 92q-12 18 -17 25q-1 2 -2.5 4t-1.5 3l-1 2l-1 1q-67 105 -47 231q18 110 102 188q82 77 195 87q145 12 252 -87q106 -97 106 -242q0 -93 -46 -170q-47 -79 -125 -119q-50 -26 -106 -44q-17 -6 -48 -13q-28 -8 -44 -11
q157 -222 307 -417q12 42 12 86q0 55 -16 112q-5 18 -14 41q-4 14 -12 28q-5 12 6 18l58 33q13 7 19 -6q10 -22 15 -34q11 -25 18 -51q20 -74 20 -141q0 -89 -38 -173q29 -37 78 -97q18 -23 39 -25q11 -2 23 3q10 3 19 9q10 6 17 -3l45 -50q11 -11 -2 -20q-12 -8 -19 -12
q-9 -6 -25 -11q-33 -13 -66 -10q-26 2 -49 14q-31 15 -56 46q-38 48 -57 71q-64 -78 -157 -119q-98 -42 -204 -32q-133 14 -233 103q-99 89 -128 220q-26 119 18 232zM280 187q93 -93 224 -93q79 0 149 37q67 36 111 99q-187 241 -359 486q-46 -18 -86 -47q-63 -50 -97 -116
q-35 -68 -35 -142q0 -131 93 -224zM342 973l1 -1l1 -2l2 -3l3 -5q6 -9 20 -29q54 -80 74 -108l35 8l20 5l22 5q30 8 43 12q46 14 94 38q54 28 88 85q32 56 32 121q0 98 -69 167t-167 69q-97 0 -166 -69q-70 -69 -70 -167q0 -70 37 -126z" />
    <glyph glyph-name="quotesingle" unicode="'" horiz-adv-x="209" 
d="M116 1518q0 13 14 13h21q14 0 14 -13v-232q0 -14 -14 -14h-21q-14 0 -14 14v232z" />
    <glyph glyph-name="parenleft" unicode="(" horiz-adv-x="472" 
d="M158 716q0 376 105 651q4 13 18 8l62 -24q13 -4 8 -18q-99 -259 -99 -617t99 -617q5 -14 -8 -18l-62 -24q-14 -5 -18 8q-105 275 -105 651z" />
    <glyph glyph-name="parenright" unicode=")" horiz-adv-x="489" 
d="M235 716q0 358 -99 617q-4 13 8 18l62 24q14 5 18 -8q105 -275 105 -651t-105 -651q-4 -13 -18 -8l-62 24q-12 5 -8 18q99 259 99 617z" />
    <glyph glyph-name="asterisk" unicode="*" horiz-adv-x="235" 
d="M6 1204q-8 11 3 19l219 158q12 8 20 -3l12 -17q8 -11 -3 -19l-220 -158q-11 -8 -19 3zM18 1378q8 11 19 3l220 -158q11 -8 3 -19l-12 -17q-8 -11 -20 -3l-219 158q-11 8 -3 19zM109 1415q0 14 13 14h21q14 0 14 -14v-265q0 -14 -14 -14h-21q-13 0 -13 14v265z" />
    <glyph glyph-name="plus" unicode="+" horiz-adv-x="656" 
d="M31 714q0 -13 14 -13h219v-219q0 -14 14 -14h66q14 0 14 14v219h219q14 0 14 13v67q0 14 -14 14h-219v219q0 13 -14 13h-66q-14 0 -14 -13v-219h-219q-14 0 -14 -14v-67z" />
    <glyph glyph-name="comma" unicode="," horiz-adv-x="246" 
d="M94 153q0 19 12 19h101q12 0 12 -19v-354q0 -19 -12 -19h-13q-42 0 -70 46q-30 72 -30 134v193z" />
    <glyph glyph-name="hyphen" unicode="-" horiz-adv-x="520" 
d="M71 748q0 13 14 13h368q14 0 14 -13v-67q0 -14 -14 -14h-368q-14 0 -14 14v67z" />
    <glyph glyph-name="period" unicode="." horiz-adv-x="300" 
d="M92 22q-20 20 -20 48t20 48t48 20t48 -20t20 -48t-20 -48t-48 -20t-48 20z" />
    <glyph glyph-name="slash" unicode="/" horiz-adv-x="513" 
d="M121 16q-1 -16 14 -16h66q13 0 14 12l185 1404q1 16 -14 16h-66q-12 0 -14 -12z" />
    <glyph glyph-name="zero" unicode="0" horiz-adv-x="1682" 
d="M149 717q0 144 56 279q56 128 154 228q101 99 228 153q133 57 279 57t279 -57q127 -54 228 -153q99 -100 153 -228q57 -134 57 -279t-57 -279q-54 -128 -153 -228q-100 -98 -228 -154q-135 -56 -279 -56t-279 56q-128 56 -228 154q-98 100 -154 228q-56 135 -56 279z
M244 717q0 -128 49 -242q46 -111 133 -198t198 -133q114 -49 242 -49t242 49q111 46 198 133t133 198q49 114 49 242t-49 242q-46 111 -133 198t-198 133q-114 49 -242 49t-242 -49q-111 -46 -198 -133t-133 -198q-49 -114 -49 -242z" />
    <glyph glyph-name="one" unicode="1" horiz-adv-x="505" 
d="M141 1194q10 -10 19 0l106 106v-1286q0 -14 14 -14h66q14 0 14 14v1405q0 14 -14 14h-74q-6 0 -10 -4l-168 -168q-10 -10 0 -20z" />
    <glyph glyph-name="two" unicode="2" horiz-adv-x="921" 
d="M74 21l615 917q36 62 36 135q0 108 -77 187q-78 78 -188 78q-85 0 -153 -49q-69 -49 -97 -128q-4 -12 -17 -9l-63 19q-14 5 -10 18q38 108 131 175q95 68 209 68q149 0 254 -106q105 -105 105 -253q0 -100 -51 -184l-1 -3l-531 -792h620q13 0 13 -14v-66q0 -14 -13 -14
h-770q-8 0 -12 7q-5 8 0 14z" />
    <glyph glyph-name="three" unicode="3" horiz-adv-x="890" 
d="M197 35q90 -39 186 -35q161 8 273 123q113 115 118 276q3 121 -60 224q-61 100 -167 153q77 46 124 126q47 83 47 176q0 146 -104 250t-249 104q-147 0 -251 -105q-10 -10 0 -20l49 -44q10 -9 20 0q75 75 182 75q111 0 187 -81q77 -80 71 -192q-4 -102 -83 -175
q-79 -71 -183 -71h-47q-14 0 -14 -14v-66q0 -14 14 -14h47q129 0 223 -88q96 -90 100 -215q5 -136 -89 -231q-93 -97 -226 -97q-149 0 -243 114q-7 10 -19 2l-53 -41q-11 -8 -2 -19q61 -75 149 -115z" />
    <glyph glyph-name="four" unicode="4" horiz-adv-x="981" 
d="M89 479h601v-465q0 -14 14 -14h67q14 0 14 14v465h165q14 0 14 14v68q0 14 -14 14h-165v843q0 11 -9 14q-10 3 -16 -5l-70 -96l-558 -756l-54 -73q-5 -8 -1 -15q5 -8 12 -8zM251 575l439 595v-595h-439z" />
    <glyph glyph-name="five" unicode="5" horiz-adv-x="992" 
d="M113 203l55 36q11 8 19 -3q52 -74 136 -112q86 -38 176 -28q126 13 215 108q88 94 91 223q3 142 -98 246q-100 103 -243 103h-267q-13 0 -13 14v629q0 13 13 13h622q13 0 13 -13v-67q0 -13 -13 -13h-542v-470h187q189 0 318 -139q130 -139 115 -331q-12 -147 -112 -256
q-100 -111 -244 -136q-125 -22 -243 26q-116 48 -189 150q-8 13 4 20z" />
    <glyph glyph-name="six" unicode="6" horiz-adv-x="1018" 
d="M257 120q119 -120 288 -120q167 0 288 119q118 118 120 286v3q0 168 -119 289q-121 119 -289 119q-63 0 -123 -19l393 614q5 8 1 14q-4 7 -12 7h-79q-7 0 -12 -6l-496 -774q-15 -21 -30 -47l-1 -2q-49 -91 -49 -195q0 -170 120 -288zM269 558l1 1l2 4l18 28q44 61 111 96
q68 35 144 35q130 0 222 -92t92 -222v-2q0 -129 -92 -221q-92 -91 -222 -91t-222 92t-92 222q0 79 38 150z" />
    <glyph glyph-name="seven" unicode="7" horiz-adv-x="1001" 
d="M36 1418q0 14 14 14h911q8 0 12 -7t0 -13l-750 -1405q-4 -7 -12 -7h-75q-8 0 -12 7q-4 6 0 13l704 1318h-778q-14 0 -14 14v66z" />
    <glyph glyph-name="eight" unicode="8" horiz-adv-x="1076" 
d="M265 118q118 -118 286 -118q167 0 285 118q119 119 119 286q0 117 -63 216q-62 97 -163 146q82 46 129 128q49 83 49 181q0 146 -104 252q-105 105 -252 105q-149 0 -252 -105q-105 -105 -105 -252q0 -98 49 -181q48 -82 129 -128q-100 -49 -162 -146q-63 -99 -63 -216
q0 -168 118 -286zM332 185q-91 91 -91 219t91 219t219 91t219 -91t91 -219t-91 -219t-219 -91t-219 91zM365 889q-77 77 -77 186t77 186t186 77t186 -77t77 -186t-77 -186t-186 -77t-186 77z" />
    <glyph glyph-name="nine" unicode="9" horiz-adv-x="1000" 
d="M104 1024q0 -169 120 -289q119 -119 288 -119q65 0 123 19l-393 -614q-4 -7 0 -14t12 -7h78q8 0 12 6l496 774q15 21 30 47l1 2q49 91 49 195q0 169 -119 288q-120 120 -289 120q-168 0 -287 -119q-119 -118 -121 -286v-3zM198 1026q2 130 93 221t221 91t222 -92
q93 -92 93 -222q0 -79 -38 -150l-2 -1l-2 -4l-17 -28q-45 -62 -112 -96q-68 -35 -144 -35q-130 0 -222 92t-92 222v2z" />
    <glyph glyph-name="colon" unicode=":" horiz-adv-x="395" 
d="M133 465q-20 20 -20 48t20 48t48 20t48 -20t20 -48t-20 -48t-48 -20t-48 20zM133 855q-20 20 -20 48t20 48t48 20t48 -20t20 -48t-20 -48t-48 -20t-48 20z" />
    <glyph glyph-name="semicolon" unicode=";" horiz-adv-x="397" 
d="M129 905q-20 20 -20 48t20 48t48 20t48 -20t20 -48t-20 -48t-48 -20t-48 20zM135 571q0 8 8 8h68q8 0 8 -8v-153q0 -8 -8 -8h-9q-28 0 -47 19q-20 20 -20 47v95z" />
    <glyph glyph-name="less" unicode="&#x3c;" horiz-adv-x="532" 
d="M61 706q-10 10 0 20l291 291q10 10 19 0l47 -47q10 -10 0 -20l-234 -234l234 -234q10 -10 0 -20l-47 -47q-9 -10 -19 0z" />
    <glyph glyph-name="equal" unicode="=" horiz-adv-x="720" 
d="M85 609q0 14 13 14h532q14 0 14 -14v-67q0 -13 -14 -13h-532q-13 0 -13 13v67zM85 890q0 14 13 14h532q14 0 14 -14v-67q0 -14 -14 -14h-532q-13 0 -13 14v67z" />
    <glyph glyph-name="greater" unicode="&#x3e;" horiz-adv-x="497" 
d="M94 462q-10 10 0 20l234 234l-234 234q-10 10 0 20l47 47q9 10 19 0l291 -291q10 -10 0 -20l-291 -291q-10 -10 -19 0z" />
    <glyph glyph-name="question" unicode="?" horiz-adv-x="714" 
d="M16 1037l44 -37q11 -8 19 1q9 9 14 13q4 3 13 10.5t14 11.5q33 22 58 35q62 29 131 34h8h9h8h10q20 -1 33 -3q36 -4 65 -15q63 -24 94 -76q15 -22 23 -58q6 -25 8 -66v-8l-1 -10v-7l-1 -7q-1 -13 -6 -31q-9 -28 -26 -57q-33 -48 -98 -89q-50 -32 -131 -70l-18 -9
q-8 -3 -8 -12v-20l-1 -294q0 -14 14 -14h67q14 0 14 14l-1 265q74 37 113 63q83 53 125 116q24 37 37 83q7 29 8 44l2 11v12l1 10v11q-2 50 -11 86q-10 42 -34 83t-61 69q-33 26 -78 43q-39 14 -85 20q-19 2 -43 3h-9h-5h-6h-10h-11q-84 -4 -164 -43q-42 -22 -72 -44
q-22 -18 -32 -27q-9 -8 -22 -21q-11 -11 2 -20zM276 19q20 -20 49 -20q28 0 48 20t20 48q0 29 -20 49t-48 20q-29 0 -49 -20t-20 -49q0 -28 20 -48z" />
    <glyph glyph-name="at" unicode="@" horiz-adv-x="1462" 
d="M160 989q76 156 220 248q125 80 266 96q138 16 277 -31q244 -86 354 -317q112 -231 26 -475q-19 -56 -46 -101l-16 -30q-7 -12 -20 -5l-278 165l48 81l206 -122q10 20 18 44q40 112 26 234q-13 118 -80 224q-76 121 -206 186q-108 53 -222 56q-111 3 -215 -39
q-101 -41 -179 -122q-82 -85 -118 -191q-41 -113 -27 -230q12 -119 76 -221q88 -145 248 -210q176 -72 357 -16q13 4 17 -8l22 -63q4 -14 -9 -18q-93 -29 -187 -29q-121 0 -234 46q-191 76 -297 253q-83 138 -90 294q-7 157 63 301zM484 482q-97 97 -97 234t97 234t234 97
t234 -97t97 -234t-97 -234t-234 -97t-234 97zM481 716q0 -98 69 -167q70 -70 168 -70t167 70q69 69 69 167t-69 167q-69 70 -167 70t-168 -70q-69 -69 -69 -167z" />
    <glyph glyph-name="A" unicode="A" 
d="M24 19q-3 -8 1 -13q5 -6 12 -6h72q9 0 13 9l244 586h598l243 -586q5 -9 13 -9h72q8 0 12 6q4 5 1 13l-584 1407q-5 8 -13 8h-87q-8 0 -13 -8zM405 689l260 626l260 -626h-520z" />
    <glyph glyph-name="B" unicode="B" horiz-adv-x="1230" 
d="M156 14q0 -14 14 -14h542q170 0 291 120q120 118 120 281v8q-2 123 -72 223q-68 98 -178 143q72 48 112 120q44 76 47 162v16q0 143 -101 249q-107 110 -259 110h-502q-14 0 -14 -14v-1404zM250 94v616h471q127 0 217 -90q91 -90 91 -218q0 -127 -91 -217
q-90 -91 -217 -91h-471zM250 805v533h422q110 0 188 -78t78 -189q0 -110 -78 -188t-188 -78h-422z" />
    <glyph glyph-name="C" unicode="C" horiz-adv-x="1245" 
d="M58 733q6 275 196 477q189 201 464 224q42 2 61 2q209 0 387 -115q11 -8 3 -19l-37 -56q-8 -11 -19 -4q-154 100 -335 100q-17 0 -51 -2q-240 -20 -406 -197q-166 -176 -169 -417v-5q0 -123 47 -240q46 -113 134 -201q84 -87 199 -136q117 -50 244 -50q184 0 338 100
q12 7 19 -4l38 -55q7 -12 -4 -19q-179 -116 -391 -116q-149 0 -283 58q-128 54 -229 157q-100 101 -154 234q-52 128 -52 269v15z" />
    <glyph glyph-name="D" unicode="D" horiz-adv-x="1426" 
d="M156 1420q0 14 14 14h435q146 0 277 -55q125 -51 226 -151q101 -99 155 -224q58 -132 59 -274v-15q0 -140 -54 -269q-56 -130 -157 -232q-102 -100 -234 -156q-135 -58 -284 -58h-423q-14 0 -14 14v1406zM251 95h354q129 0 243 49q110 46 197 133q88 86 134 198
q49 114 49 242t-49 242q-46 112 -134 198q-86 86 -197 134q-114 49 -243 49h-354v-1245z" />
    <glyph glyph-name="E" unicode="E" horiz-adv-x="1109" 
d="M156 14q0 -14 14 -14h894q14 0 14 14v66q0 14 -14 14h-814v575h542q14 0 14 14v66q0 14 -14 14h-542v574h814q14 0 14 14v67q0 14 -14 14h-894q-14 0 -14 -14v-1404z" />
    <glyph glyph-name="F" unicode="F" horiz-adv-x="978" 
d="M156 14q0 -14 14 -14h67q14 0 14 14v657h532q14 0 14 14v67q0 14 -14 14h-532v572h747q14 0 14 14v66q0 14 -14 14h-828q-14 0 -14 -14v-1404z" />
    <glyph glyph-name="G" unicode="G" horiz-adv-x="1428" 
d="M69 780q22 261 214 448q190 185 454 202q32 2 48 2q130 0 249 -46q142 -52 252 -161q10 -10 0 -20l-48 -47q-10 -9 -20 0q-177 177 -432 179h-6q-239 0 -418 -164q-180 -165 -200 -409q-2 -32 -2 -48q0 -111 37 -210q44 -121 130 -213q86 -93 203 -145q120 -54 252 -54
q249 0 430 173v330h-300q-14 0 -14 14v67q0 14 14 14h380q14 0 14 -14v-444q0 -6 -4 -10l-2 -2q-98 -98 -219 -156q-124 -57 -261 -65q-13 -1 -38 -1q-139 0 -267 52q-141 57 -247 166t-159 253q-43 117 -43 244q0 32 3 65z" />
    <glyph glyph-name="H" unicode="H" horiz-adv-x="1325" 
d="M156 1419q0 14 14 14h67q13 0 13 -14v-1403q0 -14 -13 -14h-67q-14 0 -14 14v1403zM156 670v95h1005v-95h-1005zM1067 1417q0 14 14 14h67q13 0 13 -14v-1403q0 -14 -13 -14h-67q-14 0 -14 14v1403z" />
    <glyph glyph-name="I" unicode="I" horiz-adv-x="415" 
d="M156 1419q0 14 14 14h67q14 0 14 -14v-1405q0 -14 -14 -14h-67q-14 0 -14 14v1405z" />
    <glyph glyph-name="J" unicode="J" horiz-adv-x="979" 
d="M32 224l57 34q11 6 19 -5q58 -95 162 -135q62 -24 124 -24q44 0 91 12q110 30 181 126q69 93 69 211v976q0 14 14 14h67q14 0 14 -14v-985q0 -179 -128 -307q-127 -127 -306 -127q-114 0 -211 55q-100 56 -158 150q-8 12 5 19z" />
    <glyph glyph-name="K" unicode="K" horiz-adv-x="1075" 
d="M156 14q0 -14 14 -14h66q14 0 14 14v632l683 -640q4 -4 10 -4h97q10 0 13 9q3 7 -3 15l-740 693l693 692q7 6 3 15q-5 8 -13 8h-94q-6 0 -10 -4l-639 -637v625q0 14 -14 14h-66q-14 0 -14 -14v-1404z" />
    <glyph glyph-name="L" unicode="L" horiz-adv-x="960" 
d="M156 1422q0 13 14 13h67q14 0 14 -13v-1327h671q14 0 14 -14v-67q0 -14 -14 -14h-752q-14 0 -14 14v1408z" />
    <glyph glyph-name="M" unicode="M" horiz-adv-x="1475" 
d="M156 14q0 -14 14 -14h67q13 0 13 14v1200l473 -528q11 -10 21 0l473 529v-1201q0 -14 13 -14h67q14 0 14 14v1404q0 14 -14 14h-7q-5 0 -10 -5l-547 -610l-547 610q-5 5 -10 5h-6q-14 0 -14 -14v-1404z" />
    <glyph glyph-name="N" unicode="N" horiz-adv-x="1325" 
d="M156 1417q0 15 14 15h2q6 0 11 -6l883 -1180v1172q0 14 14 14h67q14 0 14 -14v-1404q0 -14 -14 -14h-7q-6 0 -11 6l-879 1173v-1165q0 -14 -14 -14h-66q-14 0 -14 14v1403z" />
    <glyph glyph-name="O" unicode="O" horiz-adv-x="1590" 
d="M55 717q0 144 56 279q56 128 154 228q101 99 228 153q133 57 279 57t279 -57q127 -54 228 -153q99 -100 153 -228q57 -134 57 -279t-57 -279q-54 -128 -153 -228q-100 -98 -228 -154q-135 -56 -279 -56t-279 56q-128 56 -228 154q-98 100 -154 228q-56 135 -56 279z
M150 717q0 -128 49 -242q46 -111 133 -198t198 -133q114 -49 242 -49t242 49q111 46 198 133t133 198q49 114 49 242t-49 242q-46 111 -133 198t-198 133q-114 49 -242 49t-242 -49q-111 -46 -198 -133t-133 -198q-49 -114 -49 -242z" />
    <glyph glyph-name="P" unicode="P" horiz-adv-x="1149" 
d="M156 14q0 -14 14 -14h67q14 0 14 14v650h425q164 0 280 115q115 114 115 272v5q-3 156 -116 268q-113 111 -270 111h-515q-14 0 -14 -14v-1407zM251 758v583h434q120 0 206 -86q85 -85 85 -206q0 -120 -85 -205q-86 -86 -206 -86h-434z" />
    <glyph glyph-name="Q" unicode="Q" horiz-adv-x="1589" 
d="M111 997q56 128 154 228q98 98 228 154q135 56 279 56q143 0 278 -56q130 -56 228 -154q100 -100 154 -228q56 -135 56 -279q0 -143 -56 -278q-54 -130 -154 -228q-98 -100 -228 -154q-135 -56 -278 -56q-144 0 -279 56q-130 54 -228 154q-98 98 -154 228
q-56 135 -56 278q0 144 56 279zM150 718q0 -128 49 -242q46 -110 133 -197q86 -88 198 -134q114 -49 242 -49t242 49q111 47 197 134q86 86 134 197q49 114 49 242t-49 242q-48 112 -134 198q-87 87 -197 133q-114 49 -242 49t-242 -49q-111 -46 -198 -133t-133 -198
q-49 -114 -49 -242zM904 250q-2 6 3 11t10 5h67q11 0 13 -11l89 -409q2 -6 -3 -11q-5 -6 -11 -6h-66q-11 0 -14 11z" />
    <glyph glyph-name="R" unicode="R" horiz-adv-x="1161" 
d="M156 869h94v-855q0 -14 -13 -14h-67q-14 0 -14 14v855zM156 662v756q0 14 14 14h514q157 0 270 -110q112 -111 115 -268v-5q0 -158 -115 -272q-116 -115 -279 -115h-519zM250 757h434q120 0 205 85t85 205q0 121 -85 206t-205 85h-434v-581zM571 674l83 45l382 -699
q4 -6 0 -13t-12 -7h-76q-8 0 -12 7z" />
    <glyph glyph-name="S" unicode="S" horiz-adv-x="1083" 
d="M64 185l49 46q9 9 19 0q2 -1 6 -5t6 -5q15 -14 30 -23q14 -10 44 -28q62 -36 129 -54q47 -14 85 -18l11 -1l11 -1q18 -2 25 -2l26 -1h3h2l6 1h13l25 1l26 2q9 1 26 3l13 3l14 2q63 14 101 35q51 26 83 67q34 43 46 102l2 13l2 14q1 2 1 8v8l1 17v5v2v1v-2v1v7l-1 15
q0 9 -1 15l-2 7l-1 7q-12 59 -52 105q-63 73 -221 147l-67 30l-32 16l-15 7l-17 7q-81 35 -133 66q-74 44 -121 96q-3 3 -13 15l-6 8l-6 8l-21 35l-4 10l-4 9q-6 14 -7 19l-6 19l-2 11l-2 10l-4 21v17l-1 8v5v2v3v1v19q3 32 4 38q2 7 3 18l5 18q19 76 73 130q46 46 116 75
q53 20 120 29l15 1l15 1q22 2 27 2h27l27 -1q43 -1 100 -12q80 -18 153 -57q23 -12 52 -32q13 -8 37 -26q10 -10 19 -17q10 -10 0 -20l-42 -41q-9 -9 -18 -1l-15 12l-21 15q-25 18 -52 34q-63 33 -131 48q-45 9 -86 11h-23h-24q-8 0 -26 -2l-12 -1l-12 -1q-57 -7 -98 -24
q-50 -19 -85 -55q-36 -36 -51 -90l-3 -14q-2 -10 -2 -14q-3 -18 -3 -28l-1 -15v-1v-1v3v-2v-5l1 -8l1 -17l2 -12l1 -6l2 -7l4 -13q3 -10 5 -13l3 -6l3 -7l7 -12l7 -12l5 -6l4 -6q3 -5 9 -11q38 -41 100 -78q39 -23 124 -61l17 -7l17 -8l33 -15l65 -30q84 -38 134 -70
q71 -45 120 -100q54 -63 71 -145l4 -20q2 -16 2 -20l1 -20l1 -10v-3v-1v-2v-5l-1 -17l-1 -8v-10l-3 -20l-3 -20q-16 -79 -63 -139q-45 -58 -113 -93q-51 -27 -126 -44l-15 -3l-16 -2q-16 -4 -30 -4l-30 -3l-29 -1l-14 -1h-7h-5h-4l-26 1q-6 0 -26 2l-14 1l-14 2
q-40 4 -99 19q-78 22 -151 63q-27 16 -51 33q-20 13 -36 27q-14 12 -20 17q-10 10 0 20z" />
    <glyph glyph-name="T" unicode="T" horiz-adv-x="818" 
d="M3 1352q0 -14 14 -14h403v-1324q0 -14 13 -14h67q14 0 14 14v1324h403q14 0 14 14v67q0 14 -14 14h-900q-14 0 -14 -14v-67z" />
    <glyph glyph-name="U" unicode="U" horiz-adv-x="1223" 
d="M135 1418q0 14 14 14h66q14 0 14 -14v-939q0 -153 104 -266q107 -113 257 -119h16q150 0 259 106q115 111 115 270v948q0 14 14 14h67q13 0 13 -14v-948q0 -198 -142 -337q-136 -133 -326 -133h-16q-189 6 -323 147q-132 139 -132 333v938z" />
    <glyph glyph-name="V" unicode="V" horiz-adv-x="1102" 
d="M51 1416q-2 8 2 12q5 6 11 6h71q10 0 13 -9l439 -1280l440 1280q3 9 13 9h70q8 0 12 -6q4 -4 1 -12l-483 -1407q-3 -9 -13 -9h-80q-10 0 -13 9z" />
    <glyph glyph-name="W" unicode="W" horiz-adv-x="1477" 
d="M125 1418q-2 14 14 14h67q13 0 13 -13l87 -1262l418 648q4 6 11 6l14 1q8 0 12 -7l416 -646l86 1260q1 13 14 13h67q16 0 14 -14l-96 -1405q-1 -13 -14 -13h-73q-7 0 -11 6l-422 654l-421 -654q-5 -6 -12 -6h-74q-13 0 -14 13z" />
    <glyph glyph-name="X" unicode="X" horiz-adv-x="1105" 
d="M79 0q-8 0 -12 7t0 14l467 743l-407 647q-4 7 0 14t12 7h79q6 0 11 -6l360 -573l360 573q5 6 12 6h79q8 0 12 -7q4 -6 -1 -14l-406 -647l467 -743q4 -7 0 -14t-12 -7h-79q-7 0 -12 6l-420 669l-420 -669q-5 -6 -11 -6h-79z" />
    <glyph glyph-name="Y" unicode="Y" horiz-adv-x="800" 
d="M-28 1414q-4 7 0 14t12 7h79q7 0 12 -6l360 -574l361 574q4 6 12 6h79q8 0 12 -7t0 -14l-408 -648l-9 -15v-737q0 -14 -14 -14h-67q-13 0 -13 14v739z" />
    <glyph glyph-name="Z" unicode="Z" horiz-adv-x="1028" 
d="M38 105q0 3 2 7l827 1226h-744q-14 0 -14 14v67q0 14 14 14h835q13 0 13 -14v-90q0 -4 -2 -8l-826 -1226h840q14 0 14 -14v-67q0 -14 -14 -14h-931q-14 0 -14 14v91z" />
    <glyph glyph-name="bracketleft" unicode="[" horiz-adv-x="393" 
d="M100 1336q0 14 14 14h165q14 0 14 -14v-67q0 -13 -14 -13h-85v-1080h85q14 0 14 -14v-66q0 -14 -14 -14h-165q-14 0 -14 14v1240z" />
    <glyph glyph-name="backslash" unicode="\" horiz-adv-x="483" 
d="M287 12q1 -12 14 -12h66q15 0 14 16l-185 1404q-2 12 -14 12h-66q-15 0 -14 -16z" />
    <glyph glyph-name="bracketright" unicode="]" horiz-adv-x="393" 
d="M100 162q0 14 14 14h85v1080h-85q-14 0 -14 13v67q0 14 14 14h165q14 0 14 -14v-1240q0 -14 -14 -14h-165q-14 0 -14 14v66z" />
    <glyph glyph-name="asciicircum" unicode="^" horiz-adv-x="821" 
d="M109 1040q-9 10 0 20l292 291q9 10 19 0l291 -291q10 -10 0 -20l-47 -47q-9 -9 -19 0l-235 235l-234 -235q-10 -9 -19 0z" />
    <glyph glyph-name="underscore" unicode="_" horiz-adv-x="655" 
d="M100 -93q0 13 14 13h427q14 0 14 -13v-67q0 -14 -14 -14h-427q-14 0 -14 14v67z" />
    <glyph glyph-name="grave" unicode="`" horiz-adv-x="364" 
d="M106 1393q-6 12 6 18l19 10q12 7 18 -5l109 -205q6 -12 -6 -19l-19 -10q-12 -6 -18 6z" />
    <glyph glyph-name="a" unicode="a" horiz-adv-x="777" 
d="M109 99q28 -38 73 -63q40 -21 86 -29q38 -6 74 -6q50 0 91 10q82 20 140 69q35 29 63 67q4 -54 14 -135q2 -12 14 -12h67q15 0 14 16q-12 96 -17 164q-9 106 -9 186q0 37 1 60v48v50q-2 62 -8 97q-16 106 -76 169q-78 80 -229 80q-105 0 -196 -41q-34 -16 -60 -34
q-4 -2 -11 -8t-10 -8l-15 -12q-11 -11 0 -21l50 -45q9 -7 18 0q3 3 11 9q7 6 16 11q30 18 47 25q69 29 150 29q111 0 161 -51q57 -58 58 -210l-15 1q-30 2 -38 2q-30 2 -45 2q-15 1 -44 1q-22 0 -64 -2q-67 -4 -130 -19q-87 -23 -141 -66q-40 -32 -58 -70q-21 -40 -25 -89
q-1 -8 -1 -23q0 -90 44 -152zM157 268q3 59 48 97q37 31 106 48q47 11 114 16q50 2 75 2h26q51 -2 78 -5q3 0 10 -1t11 -1v-29l-1 -29l1 -30l-5 -19q-14 -51 -34 -87q-29 -51 -68 -81q-49 -36 -106 -49q-29 -7 -64 -7q-32 0 -63 6q-69 14 -99 55q-29 40 -29 105v9z" />
    <glyph glyph-name="b" unicode="b" horiz-adv-x="967" 
d="M60 14q0 -14 14 -14h66q14 0 14 14v151q62 -77 149 -120q90 -45 191 -45q94 0 180 39q81 37 143 105q61 67 90 154q22 66 22 136q0 26 -3 51q-16 150 -126 258t-259 123q-24 3 -48 3q-89 0 -171 -36q-100 -43 -168 -129v715q0 14 -14 14h-66q-14 0 -14 -14v-1405z
M254 675q100 100 240 100q141 0 241 -100t100 -241q0 -140 -100 -240t-241 -100q-140 0 -240 100t-100 240q0 141 100 241z" />
    <glyph glyph-name="c" unicode="c" horiz-adv-x="792" 
d="M54 477q13 150 121 262q106 109 257 129q27 4 60 4q122 0 228 -67q12 -7 4 -20l-38 -55q-8 -11 -19 -4q-83 51 -180 51h-7q-134 -3 -231 -99t-102 -230v-14q0 -136 96 -235q101 -104 245 -104q98 0 180 51q11 8 19 -4l37 -55q9 -13 -4 -20q-106 -67 -232 -67
q-192 0 -321 142q-115 124 -115 289q0 16 2 46z" />
    <glyph glyph-name="d" unicode="d" horiz-adv-x="1069" 
d="M36 434q0 -180 127 -307t307 -127q102 0 192 45q87 43 149 120v-151q0 -14 13 -14h67q14 0 14 14v1405q0 14 -14 14h-67q-13 0 -13 -14v-715q-62 77 -149 120q-90 45 -192 45q-179 0 -307 -128q-127 -127 -127 -307zM230 675q100 100 240 100q141 0 241 -100t100 -241
q0 -140 -100 -240t-241 -100q-140 0 -240 100t-100 240q0 141 100 241z" />
    <glyph glyph-name="e" unicode="e" horiz-adv-x="977" 
d="M159 744q122 125 296 125h3q173 -2 294 -127q121 -124 121 -300v-22q0 -12 -12 -13l-718 -63q30 -108 120 -179q92 -71 208 -71q89 0 165 43q76 42 123 116q8 12 19 5l58 -33q13 -8 5 -20q-60 -95 -159 -150q-97 -55 -211 -55q-180 0 -307 127q-128 128 -128 308
q0 183 123 309zM776 494q-13 123 -103 202q-88 79 -218 79q-139 0 -230 -96q-92 -97 -94 -241z" />
    <glyph glyph-name="f" unicode="f" horiz-adv-x="490" 
d="M83 857q0 14 14 14h337q14 0 14 -14v-66q0 -14 -14 -14h-337q-14 0 -14 14v66zM187 1174q0 75 32 134q32 60 90 88q44 21 91 21q16 0 25 -1q62 -6 119 -45q12 -8 3 -20l-40 -53q-8 -11 -19 -3q-44 29 -85 29q-27 0 -52 -12q-70 -36 -70 -138v-1160q0 -14 -14 -14h-67
q-13 0 -13 14v1160z" />
    <glyph glyph-name="g" unicode="g" horiz-adv-x="1044" 
d="M163 743q128 128 309 128q180 0 308 -128q19 -19 39 -44v156q0 14 13 14h67q14 0 14 -14v-885q0 -180 -128 -308t-308 -128q-114 0 -212 55q-99 56 -159 151q-7 11 5 19l58 34q11 7 19 -5q58 -94 163 -135q60 -25 125 -25q46 0 91 13q111 30 182 126q70 94 70 212v191
q-20 -25 -39 -44q-128 -128 -308 -128q-181 0 -309 128q-127 127 -127 308q0 182 127 309zM230 193q100 -100 242 -100q141 0 241 100t100 241q0 142 -100 242t-241 100q-142 0 -242 -100t-100 -242q0 -141 100 -241z" />
    <glyph glyph-name="h" unicode="h" horiz-adv-x="964" 
d="M146 18q0 -14 14 -14h66q14 0 14 14v455l2 41v16l1 7q0 5 1 8q1 8 3 22q5 27 20 58q16 35 43 65q31 34 74 57q48 25 98 29q9 1 27 1l8 -1h7h6l7 -1q31 -5 54 -13q55 -18 96 -59q42 -41 63 -94q9 -21 14 -53q2 -18 3 -28v-13v-16q0 -169 -1 -229v-223v-33q-2 -14 13 -14
h67q14 0 14 14v33q-1 59 -1 223v108q0 83 -1 121v16v18q-2 24 -4 37q-6 35 -20 72q-29 74 -85 126q-55 54 -129 78q-34 11 -73 16l-10 1l-9 1h-9h-8q-12 1 -37 -1q-71 -8 -131 -40q-52 -28 -96 -76l-7 -9v683q0 14 -14 14h-66q-14 0 -14 -14v-1403z" />
    <glyph glyph-name="i" unicode="i" horiz-adv-x="406" 
d="M126 1097q-20 20 -20 48t20 48t48 20t48 -20t20 -48t-20 -48t-48 -20t-48 20zM127 853q0 14 13 14h67q14 0 14 -14v-839q0 -14 -14 -14h-67q-13 0 -13 14v839z" />
    <glyph glyph-name="j" unicode="j" horiz-adv-x="437" 
d="M-36 -189q7 10 19 3q44 -30 85 -30q27 0 52 13q70 34 70 137v917q0 14 14 14h67q13 0 13 -14v-437v-480q0 -75 -32 -134q-33 -58 -90 -87q-43 -22 -93 -22q-74 0 -142 46q-12 8 -3 20zM286 1191q20 -20 20 -48t-20 -48t-49 -20q-28 0 -48 20t-20 48t20 48t48 20
q29 0 49 -20z" />
    <glyph glyph-name="k" unicode="k" horiz-adv-x="793" 
d="M146 14q0 -14 14 -14h66q14 0 14 14v364l92 89l383 -462q5 -5 11 -5h86q8 0 13 8q3 7 -2 15l-423 509l321 309q7 6 3 15q-3 9 -12 9h-94q-5 0 -9 -4l-369 -352v907q0 14 -14 14h-66q-14 0 -14 -14v-1402z" />
    <glyph glyph-name="l" unicode="l" horiz-adv-x="358" 
d="M146 14q0 -14 14 -14h67q13 0 13 14v1407q0 13 -13 13h-67q-14 0 -14 -13v-1407z" />
    <glyph glyph-name="m" unicode="m" horiz-adv-x="1532" 
d="M137 16q0 -14 14 -14h66q14 0 14 14v466l2 41v15l1 7l1 8q1 8 3 22q6 28 20 56q18 38 43 64q31 33 72 54q48 23 97 26h13h4h2h8h7l6 -1l7 -1h6q31 -5 53 -14q56 -22 92 -61q38 -40 57 -94q8 -28 11 -53q1 -4 1.5 -13t0.5 -14l-1 -31v-60v-58v-107q-1 -87 -1 -219v-33
q0 -14 14 -14h67q15 0 13 14v33v219v52l-1 27v28v58v60v1l1 29q0 8 1 15v7q1 3 1 8q2 14 4 22q7 31 19 56q16 34 43 64q32 33 72 54q48 23 97 26h7h7h3h1h1h8h7l7 -1l6 -1h7q30 -5 52 -14q56 -22 92 -61q38 -40 57 -94q10 -27 11 -53q2 -16 2 -27v-31q0 -75 -1 -118v-55v-26
v-26q0 -160 -1 -219v-33q0 -14 14 -14h67q14 0 14 14v33q-1 59 -1 219v52v27v28q-1 50 -1 118v31q0 15 -2 37q-5 40 -16 72q-25 71 -78 127q-52 55 -126 82q-35 14 -71 18l-9 1l-9 1l-10 1h-8h-8h-5h-5h-9l-9 -1q-68 -4 -130 -36q-54 -29 -95 -74q-30 -33 -48 -68
q-21 40 -56 76q-52 55 -125 82q-35 14 -71 18l-9 1l-10 1l-9 1h-9h-8h-5h-4h-9l-9 -1q-68 -4 -130 -36q-55 -28 -96 -74l-7 -9v115q0 14 -14 14h-66q-14 0 -14 -14v-842z" />
    <glyph glyph-name="n" unicode="n" horiz-adv-x="935" 
d="M137 14q0 -14 13 -14h67q14 0 14 14v486l1 22v15l1 7l1 9q0 3 1 10.5t2 11.5q8 31 20 56q15 32 43 63q31 34 73 55q46 23 97 26h6h7h3h3h8h7l6 -1l6 -1l7 -1q29 -5 53 -13q56 -22 92 -61q39 -40 57 -95q9 -25 12 -53q1 -8 1 -27v-31q0 -75 -1 -118v-55v-27v-25
q0 -161 -1 -220v-33q0 -14 14 -14h67q14 0 14 14v33q0 132 -1 220v52v27v28v58v60v32q-2 20 -3 36q-5 40 -16 72q-24 72 -78 128q-52 55 -126 82q-35 14 -71 18l-9 1l-10 1l-9 1h-9h-8h-9h-9l-9 -1q-70 -5 -131 -36q-53 -28 -96 -74l-6 -8v114q0 14 -14 14h-67
q-13 0 -13 -14v-844z" />
    <glyph glyph-name="o" unicode="o" horiz-adv-x="968" 
d="M800 741q128 -128 128 -307t-128 -307q-127 -127 -306 -127q-180 0 -307 127t-127 307t127 307t307 127q179 0 306 -127zM253 194q100 -100 241 -100q140 0 240 100t100 240q0 141 -100 240q-100 100 -240 100q-141 0 -241 -100q-99 -99 -99 -240q0 -140 99 -240z" />
    <glyph glyph-name="p" unicode="p" horiz-adv-x="1067" 
d="M137 -548q0 -14 14 -14h68q14 0 14 14v714q61 -76 150 -120q91 -45 195 -45q181 0 312 128q129 127 129 307q0 178 -129 306q-131 128 -312 128q-104 0 -195 -45q-89 -43 -150 -120v151q0 14 -14 14h-68q-14 0 -14 -14v-1404zM334 676q100 100 244 100t244 -100
q101 -101 101 -240q0 -140 -101 -241q-100 -99 -244 -99t-244 99q-101 101 -101 241q0 139 101 240z" />
    <glyph glyph-name="q" unicode="q" horiz-adv-x="1049" 
d="M165 129q131 -128 312 -128q103 0 195 45q88 44 150 120v-714q0 -14 14 -14h68q14 0 14 14v1404q0 14 -14 14h-68q-14 0 -14 -14v-151q-62 77 -150 120q-92 45 -195 45q-181 0 -312 -128q-129 -128 -129 -306q0 -180 129 -307zM233 676q100 100 244 100t244 -100
q101 -101 101 -240q0 -140 -101 -241q-101 -99 -244 -99t-244 99q-101 101 -101 241q0 139 101 240z" />
    <glyph glyph-name="r" unicode="r" horiz-adv-x="536" 
d="M137 14q0 -14 14 -14h67q13 0 13 14v508q0 103 73 176t176 73q19 0 37 -3q13 -1 16 11l13 65q3 14 -11 17q-24 4 -55 4q-147 0 -249 -108v100q0 14 -13 14h-67q-14 0 -14 -14v-843z" />
    <glyph glyph-name="s" unicode="s" horiz-adv-x="683" 
d="M60 118l48 46q8 8 19 1q7 -7 16 -13q13 -10 26 -17q31 -18 70 -29q21 -6 46 -10l6 -1h6q5 -1 14 -1l15 -1h2h4l7 1q19 0 57 5q33 8 54 19q55 27 65 85l1 7l1 6q1 2 1 9v5v5l1 3v1v1v-2l-1 4v7q0 5 -1 8l-1 7q-6 28 -26 53q-35 41 -122 81l-39 17l-19 9l-8 4l-10 4
q-51 23 -79 40q-46 26 -75 59q-2 2 -8 10l-8 10q-6 9 -13 23l-6 12q-1 2 -1.5 4.5t-1.5 4.5t-1 3q-7 24 -7 27l-2 14v9l-1 5v3v1v3v1l1 12q0 5 2 23l2 12l3 12q13 50 47 83q30 30 74 48q31 12 74 18h10l9 1q7 1 16 1h16h17q33 -2 61 -8q47 -10 94 -35q22 -12 32 -19
q13 -9 22 -17q2 -1 8 -7q10 -10 0 -20l-41 -41q-9 -8 -19 -1q-12 10 -19 14q-12 9 -24 15q-37 19 -71 26q-29 5 -47 6h-13h-13q-10 0 -15 -1h-6l-6 -1q-34 -5 -53 -13q-27 -10 -43 -28q-17 -16 -25 -44l-2 -7l-1 -7q-1 -7 -1 -15l-1 -8v2v-1l1 -3v-5v-9l2 -6q0 -3 1 -5l2 -7
l2 -6l3 -6l3 -6l4 -6l5 -6l5 -6q22 -23 53 -41q26 -15 70 -35l10 -4l11 -5l19 -9l38 -16q51 -25 79 -42q44 -27 74 -63q35 -40 46 -92l3 -13q1 -5 1 -13l1 -12v-7v-4v-3v-5v-5q-1 -4 -1 -11l-2 -13l-2 -13q-11 -51 -40 -89q-27 -36 -72 -59q-35 -18 -78 -27q-42 -8 -73 -9
h-9h-4h-4h-2l-15 1q-9 0 -16 1h-9l-8 1q-27 4 -61 12q-49 14 -92 39q-22 11 -38 24q-20 15 -24 19q-10 11 0 21z" />
    <glyph glyph-name="t" unicode="t" horiz-adv-x="491" 
d="M42 788q0 -14 14 -14h121v-544q0 -72 30 -127q31 -55 85 -82q40 -21 88 -21q69 0 134 44q12 7 3 19l-40 54q-7 10 -19 3q-40 -27 -77 -27q-25 0 -47 12q-63 31 -63 125v544h137q14 0 14 14v67q0 14 -14 14h-137v247q0 14 -14 14h-67q-14 0 -14 -14l1 -247h-121
q-14 0 -14 -14v-67z" />
    <glyph glyph-name="u" unicode="u" horiz-adv-x="938" 
d="M113 824q0 -132 1 -221v-51v-56v-119v-32q0 -12 1 -17q0 -13 1 -18q3 -38 15 -73q24 -73 77 -130q52 -56 124 -84q38 -15 72 -19l18 -2l19 -2h8h4h6l17 1q70 5 132 36q58 30 97 73l4 5l4 5v-106q0 -14 14 -14h66q14 0 14 14v844q0 14 -14 14h-66q-14 0 -14 -14v-476
l-2 -41v-16l-1 -6q0 -6 -1 -9t-2 -11t-1 -11q-5 -25 -20 -56q-17 -35 -44 -64q-32 -33 -73 -54q-48 -23 -98 -26h-13h-14l-13 1l-13 2q-27 4 -53 15q-53 20 -92 62q-38 41 -56 96q-9 30 -10 54q-1 7 -1 27v32v119v28v28q1 19 1 51v221v34q0 14 -13 14h-67q-14 0 -14 -14v-34
z" />
    <glyph glyph-name="v" unicode="v" horiz-adv-x="771" 
d="M20 850q-3 8 1 13q5 6 12 6h71q9 0 12 -9l259 -697l258 697q3 9 13 9h70q8 0 12 -6q4 -5 1 -13l-311 -841q-4 -9 -13 -9h-61q-8 0 -13 9z" />
    <glyph glyph-name="w" unicode="w" horiz-adv-x="1290" 
d="M316 9q3 -9 13 -9h50q10 0 13 9l242 725l241 -725q3 -9 13 -9h51q10 0 13 9l296 843q3 8 -1 12q-5 6 -12 6h-71q-10 0 -13 -9l-242 -697l-227 697q-3 9 -13 9h-71q-10 0 -13 -9l-226 -697l-243 697q-3 9 -13 9h-71q-6 0 -11 -6q-4 -4 -2 -12z" />
    <glyph glyph-name="x" unicode="x" horiz-adv-x="864" 
d="M56 15l314 421l-314 422q-3 4 -1 10q3 5 9 5h92q6 0 11 -6l262 -351l261 351q4 6 11 6h93q6 0 8 -5q4 -5 -1 -10l-313 -422l313 -421q5 -5 1 -10q-2 -5 -8 -5h-93q-7 0 -11 6l-261 351l-262 -351q-5 -6 -11 -6h-92q-6 0 -9 5q-2 6 1 10z" />
    <glyph glyph-name="y" unicode="y" horiz-adv-x="823" 
d="M-19 854q-3 8 1 13q4 6 11 6h73q9 0 12 -8l308 -742l298 742q5 8 13 8h72q7 0 11 -6q4 -5 2 -12l-493 -1225q-3 -9 -12 -9h-72q-7 0 -12 6q-4 5 -1 13l144 358z" />
    <glyph glyph-name="z" unicode="z" horiz-adv-x="821" 
d="M53 102q0 5 4 9l578 664h-552q-13 0 -13 14v66q0 14 13 14h657q14 0 14 -14v-83q0 -5 -4 -9l-583 -669h581q14 0 14 -14v-66q0 -14 -14 -14h-681q-14 0 -14 14v88z" />
    <glyph glyph-name="braceleft" unicode="{" horiz-adv-x="465" 
d="M103 729q-3 6 0 12l69 138q19 279 100 492q4 13 18 8l62 -25q13 -4 8 -17q-76 -199 -94 -474l-1 -10l-59 -118l57 -117l1 -9q14 -294 96 -510q5 -14 -8 -18l-62 -24q-14 -5 -18 8q-86 225 -102 529z" />
    <glyph glyph-name="bar" unicode="|" horiz-adv-x="305" 
d="M100 1491q0 16 15 16h75q15 0 15 -16v-1566q0 -15 -15 -15h-75q-15 0 -15 15v1566z" />
    <glyph glyph-name="braceright" unicode="}" horiz-adv-x="465" 
d="M201 609l1 9l57 117l-59 118l-1 10q-18 275 -94 474q-5 13 8 17l62 25q14 5 18 -8q81 -213 100 -492l69 -138q3 -6 0 -12l-67 -135q-16 -304 -102 -529q-4 -13 -18 -8l-62 24q-13 4 -8 18q83 216 96 510z" />
    <glyph glyph-name="asciitilde" unicode="~" horiz-adv-x="761" 
d="M100 747q0 6 5 11q5 4 12 2q62 -15 134 -11q14 1 66 7l67 10q178 27 267 2q10 -3 10 -13v-66q0 -7 -6 -11q-4 -4 -12 -2q-60 15 -133 11q-15 -1 -67 -7l-66 -10q-175 -28 -267 -2q-10 1 -10 13v66z" />
    <glyph glyph-name="uni00A0" unicode="&#xa0;" horiz-adv-x="508" 
 />
    <glyph glyph-name="exclamdown" unicode="&#xa1;" horiz-adv-x="336" 
d="M120 1174q-20 20 -20 48t20 48t48 20t48 -20t20 -48t-20 -48t-48 -20t-48 20zM121 976q0 14 14 14h66q14 0 14 -14v-962q0 -14 -14 -14h-66q-14 0 -14 14v962z" />
    <glyph glyph-name="cent" unicode="&#xa2;" horiz-adv-x="889" 
d="M184 476q81 -123 220 -171l-38 -289q-1 -16 13 -16h67q12 0 13 12l36 272q26 -3 50 -3q126 0 232 67q11 7 4 19l-38 55q-8 11 -19 4q-81 -51 -179 -51q-12 0 -38 2l89 673q69 -10 128 -47q11 -8 19 4l37 55q7 12 -4 19q-74 48 -168 62l36 270q1 16 -14 16h-66
q-12 0 -14 -12l-35 -271l-13 -1l-13 -1q-149 -20 -255 -129q-107 -110 -120 -259q-14 -153 70 -280zM296 943q86 92 206 108l-86 -650q-96 40 -154 127q-60 92 -56 199q4 123 90 216z" />
    <glyph glyph-name="sterling" unicode="&#xa3;" horiz-adv-x="874" 
d="M102 289q-2 -7 3 -12t10 -5h615q14 0 14 14v66q0 14 -14 14h-512l52 218h209q14 0 14 14v67q0 14 -14 14h-186l33 136h153q14 0 14 14v66q0 14 -14 14h-130l9 36v2q15 76 76 125q59 49 138 49q73 0 131 -43q10 -8 19 1l43 51q9 11 -2 20q-85 65 -191 65q-112 0 -197 -70
q-87 -70 -109 -179z" />
    <glyph glyph-name="currency" unicode="&#xa4;" horiz-adv-x="969" 
d="M166 350q14 -14 28 0l104 104q45 -32 102 -48q43 -12 85 -12q43 0 85 12q56 17 101 48l104 -104q14 -14 28 0l52 53q14 14 0 28l-103 103q32 46 48 102q12 42 12 85t-12 85q-16 56 -48 102l103 103q14 14 0 28l-52 53q-14 14 -28 0l-104 -104q-45 32 -102 48
q-42 12 -83 12q-44 0 -89 -14q-57 -17 -99 -46l-104 104q-14 14 -28 0l-52 -53q-14 -14 0 -28l104 -104q-30 -41 -47 -99q-13 -42 -13 -87q0 -42 12 -84q16 -56 48 -103l-104 -103q-14 -14 0 -28zM272 780q16 56 56 98q42 40 98 56q28 9 58 9q28 0 58 -8q60 -17 100 -57
t57 -99q9 -29 9 -58t-9 -58q-17 -59 -57 -99t-99 -57q-30 -8 -58 -8t-58 8q-59 17 -99 57t-57 100q-9 28 -9 56q0 31 10 60z" />
    <glyph glyph-name="yen" unicode="&#xa5;" horiz-adv-x="1008" 
d="M225 1029h-56q-14 0 -14 -14v-66q0 -14 14 -14h96l36 -88h-132q-14 0 -14 -14v-66q0 -14 14 -14h171l119 -286l-145 -358q-2 -8 2 -13q4 -6 11 -6h72q10 0 13 8l263 655h174q14 0 14 14v66q0 14 -14 14h-136l35 88h101q14 0 14 14v66q0 14 -14 14h-63l119 295q3 7 -2 13
t-11 6h-72q-8 0 -13 -9l-122 -305h-357l-127 305q-5 9 -13 9h-72q-8 0 -12 -6q-4 -7 -1 -13zM367 935h280l-36 -88h-208zM442 753h132l-65 -161z" />
    <glyph glyph-name="brokenbar" unicode="&#xa6;" horiz-adv-x="360" 
d="M100 371h160v-789h-160v789zM100 1578h160v-789h-160v789z" />
    <glyph glyph-name="section" unicode="&#xa7;" horiz-adv-x="524" 
d="M133 309q10 -7 32 -17q42 -19 92 -19q75 0 122 39q45 39 45 104q0 61 -49 104q-22 17 -45 29q-7 3 -21 11l-10 4l-10 4l-16 8q-66 28 -66 53v5v6q1 5 7 13q14 14 51 14v1q71 1 116 40q43 39 43 103q0 61 -49 103q-19 16 -45 30q-3 2 -10 5t-11 5l-10 5l-10 4l-16 8
q-66 28 -66 53v5v6q1 6 7 12q14 15 51 15q23 0 41 -7q10 -4 15 -7q9 -6 10 -7q10 -6 18 2l48 47q10 10 -1 20q-12 10 -19 14q-13 8 -29 15q-40 17 -83 17q-69 0 -111 -36t-42 -96q0 -56 45 -95q15 -13 41 -27q5 -3 19 -9l9 -5l9 -3l16 -8q47 -20 62 -34q17 -14 17 -32v-3v-3
q0 -5 -1 -8q-1 -8 -8 -16q-17 -20 -64 -20q-65 -1 -105 -38q-40 -34 -40 -94q0 -57 45 -94q16 -14 41 -27q11 -7 19 -10l9 -4l9 -4l16 -8q46 -20 62 -33q17 -15 17 -33v-3v-3q0 -5 -1 -7q-1 -9 -8 -17q-16 -19 -64 -19q-27 0 -49 9q-9 3 -18 8q-12 7 -13 8q-9 7 -17 -1
l-49 -46q-11 -11 0 -21q14 -10 22 -15z" />
    <glyph glyph-name="dieresis" unicode="&#xa8;" horiz-adv-x="510" 
d="M120 1393q20 20 48 20t48 -20t20 -49q0 -28 -20 -48t-48 -20t-48 20t-20 48q0 29 20 49zM293 1393q20 20 48 20q29 0 49 -20t20 -49q0 -28 -20 -48t-49 -20q-28 0 -48 20t-20 48q0 29 20 49z" />
    <glyph glyph-name="copyright" unicode="&#xa9;" horiz-adv-x="1161" 
d="M78 718q0 198 139 337q140 140 337 140t337 -140t140 -337t-140 -337t-337 -140t-337 140q-139 139 -139 337zM284 988q-112 -112 -112 -270t112 -270t270 -112t270 112t112 270t-112 270t-270 112t-270 -112zM397 887q69 67 164 69q67 1 125 -33q11 -7 4 -19l-38 -56
q-7 -10 -18 -4q-43 24 -94 16q-46 -7 -81 -44q-33 -35 -38 -84q-6 -65 37 -111q44 -47 106 -47q38 0 70 18q10 6 18 -5l38 -55q7 -12 -4 -19q-55 -34 -122 -34q-100 0 -171 72q-70 73 -67 174q1 94 71 162z" />
    <glyph glyph-name="ordfeminine" unicode="&#xaa;" horiz-adv-x="648" 
 />
    <glyph glyph-name="guillemotleft" unicode="&#xab;" horiz-adv-x="807" 
d="M110 706q-10 10 0 20l291 291q10 10 19 0l47 -47q10 -10 0 -20l-234 -234l234 -234q10 -10 0 -20l-47 -47q-9 -10 -19 0zM340 706q-10 10 0 20l291 291q10 10 19 0l47 -47q10 -10 0 -20l-234 -234l234 -234q10 -10 0 -20l-47 -47q-9 -10 -19 0z" />
    <glyph glyph-name="logicalnot" unicode="&#xac;" horiz-adv-x="1040" 
d="M100 667v100h840v-491l-1 -1h-98v392h-741z" />
    <glyph glyph-name="uni00AD" unicode="&#xad;" horiz-adv-x="520" 
d="M71 748q0 13 14 13h368q14 0 14 -13v-67q0 -14 -14 -14h-368q-14 0 -14 14v67z" />
    <glyph glyph-name="registered" unicode="&#xae;" horiz-adv-x="1152" 
d="M239 1053q140 140 337 140q196 0 336 -140t140 -336q0 -197 -140 -337q-139 -139 -336 -139q-198 0 -337 139t-139 337q0 197 139 336zM194 717q0 -158 112 -270t270 -112t269 112q112 112 112 270t-112 269q-111 112 -269 112t-270 -112q-112 -111 -112 -269zM435 517
q0 -14 14 -14h67q14 0 14 14v151h32l74 -157q3 -8 12 -8h74q8 0 12 7q4 5 1 13l-75 158q36 19 55 52q21 35 18 76q-5 52 -44 87q-38 34 -92 34h-148q-14 0 -14 -13v-400zM530 762v74h72q15 0 26 -11t11 -26t-11 -26t-26 -11h-72z" />
    <glyph glyph-name="macron" unicode="&#xaf;" horiz-adv-x="670" 
 />
    <glyph glyph-name="degree" unicode="&#xb0;" horiz-adv-x="756" 
d="M181.5 1361q81.5 81 197.5 81q115 0 196 -81.5t81 -196.5q0 -114 -82 -196t-197 -82q-117 0 -197 80.5t-80 197.5q0 116 81.5 197zM231.5 1311q-61.5 -61 -61.5 -148t61 -147t148 -60t147 60t60 147t-60.5 148t-146.5 61t-147.5 -61z" />
    <glyph glyph-name="plusminus" unicode="&#xb1;" horiz-adv-x="760" 
d="M100 348q0 -14 14 -14h532q14 0 14 14v67q0 14 -14 14h-532q-14 0 -14 -14v-67zM100 786q0 -14 14 -14h219v-219q0 -14 14 -14h66q14 0 14 14v219h219q14 0 14 14v67q0 13 -14 13h-219v219q0 14 -14 14h-66q-14 0 -14 -14v-219h-219q-14 0 -14 -13v-67z" />
    <glyph glyph-name="uni00B2" unicode="&#xb2;" horiz-adv-x="1014" 
 />
    <glyph glyph-name="uni00B3" unicode="&#xb3;" horiz-adv-x="1014" 
 />
    <glyph glyph-name="acute" unicode="&#xb4;" horiz-adv-x="661" 
d="M100 1078l291 297q34 34 54.5 46.5t41.5 12.5q33 0 53.5 -20t20.5 -51q0 -41 -62 -82l-330 -203h-69z" />
    <glyph glyph-name="uni00B5" unicode="&#xb5;" horiz-adv-x="895" 
d="M100 861q0 14 13 14h67q14 0 14 -14v-476l2 -41v-16l1 -7q0 -5 1 -8q1 -8 3 -22q6 -27 20 -57q18 -38 43 -64q31 -33 74 -54q49 -24 98 -25h13h14l13 1l13 2q31 5 53 14q53 21 92 63q38 41 56 96q9 30 10 53q1 7 1 28v31v120v28v27v52q-1 89 -1 221v34q0 13 14 13h67
q14 0 13 -13v-34v-221v-25v-27q-1 -20 -1 -55v-120v-31v-17q0 -3 -0.5 -9.5t-1.5 -9.5q-3 -37 -14 -73q-27 -77 -77 -130q-52 -55 -125 -84q-32 -13 -72 -19l-18 -2l-19 -1h-8l-4 -1h-3h-2l-18 1q-71 5 -132 36q-59 30 -97 74l-4 5l-4 4v-268q0 -14 -14 -14h-67
q-13 0 -13 14v1007z" />
    <glyph glyph-name="paragraph" unicode="&#xb6;" horiz-adv-x="786" 
d="M171 804q70 -66 193 -72v-504q0 -14 14 -14h31q14 0 14 14v944h117v-944q0 -14 13 -14h30q14 0 14 14v944h75q14 0 14 14v22q0 13 -14 13h-297q-126 0 -200 -67q-75 -68 -75 -177q0 -107 71 -173z" />
    <glyph glyph-name="periodcentered" unicode="&#xb7;" horiz-adv-x="336" 
d="M120 601q-20 20 -20 48t20 48t48 20t48 -20t20 -48t-20 -48t-48 -20t-48 20z" />
    <glyph glyph-name="uni00B9" unicode="&#xb9;" horiz-adv-x="1014" 
 />
    <glyph glyph-name="ordmasculine" unicode="&#xba;" horiz-adv-x="718" 
 />
    <glyph glyph-name="guillemotright" unicode="&#xbb;" horiz-adv-x="807" 
d="M110 462q-10 10 0 20l234 234l-234 234q-10 10 0 20l47 47q9 10 19 0l291 -291q10 -10 0 -20l-291 -291q-10 -10 -19 0zM340 462q-10 10 0 20l234 234l-234 234q-10 10 0 20l47 47q9 10 19 0l291 -291q10 -10 0 -20l-291 -291q-10 -10 -19 0z" />
    <glyph glyph-name="onequarter" unicode="&#xbc;" horiz-adv-x="1708" 
 />
    <glyph glyph-name="onehalf" unicode="&#xbd;" horiz-adv-x="1964" 
 />
    <glyph glyph-name="threequarters" unicode="&#xbe;" horiz-adv-x="1708" 
 />
    <glyph glyph-name="questiondown" unicode="&#xbf;" horiz-adv-x="853" 
d="M100 423q2 -50 11 -86q10 -42 34 -83t61 -69q33 -26 78 -43q39 -14 85 -20q19 -2 43 -3h41q84 4 164 43q42 22 72 44q22 18 32 27q9 8 22 21q11 11 -2 20l-44 37q-11 8 -19 -1q-9 -9 -14 -13q-4 -3 -13 -10.5t-14 -11.5q-33 -22 -58 -35q-62 -29 -131 -34h-35
q-19 2 -33 3q-36 4 -65 15q-63 24 -94 76q-15 22 -23 58q-6 25 -8 66v8l1 10v7l1 7q1 13 6 31q9 28 26 57q33 48 98 89q50 32 131 70l18 9q8 3 8 12v20l1 294q0 14 -14 14h-67q-14 0 -14 -14l1 -265q-74 -37 -113 -63q-83 -53 -125 -116q-24 -37 -37 -83q-7 -29 -8 -44
l-2 -11v-12l-1 -10v-11zM384 1195q20 -20 48 -20q29 0 49 20t20 49q0 28 -20 48t-49 20q-28 0 -48 -20t-20 -48q0 -29 20 -49z" />
    <glyph glyph-name="Agrave" unicode="&#xc0;" 
d="M608 1426q5 8 13 8h87q8 0 13 -8l584 -1407q3 -8 -1 -13q-4 -6 -12 -6h-72q-8 0 -13 9l-243 586h-598l-244 -586q-4 -9 -13 -9h-72q-7 0 -12 6q-4 5 -1 13zM405 689h520l-260 626zM455 1719q2 14 16 12l410 -61q13 -1 11 -16l-10 -66q-2 -14 -15 -11l-410 61
q-13 2 -12 15z" />
    <glyph glyph-name="Aacute" unicode="&#xc1;" 
d="M608 1426q5 8 13 8h87q8 0 13 -8l584 -1407q3 -8 -1 -13q-4 -6 -12 -6h-72q-8 0 -13 9l-243 586h-598l-244 -586q-4 -9 -13 -9h-72q-7 0 -12 6q-4 5 -1 13zM405 689h520l-260 626zM445 1588q2 -14 15 -11l410 61q14 2 12 15l-10 66q-2 14 -16 12l-410 -61q-13 -1 -11 -16
z" />
    <glyph glyph-name="Acircumflex" unicode="&#xc2;" 
d="M608 1426q5 8 13 8h87q8 0 13 -8l584 -1407q3 -8 -1 -13q-4 -6 -12 -6h-72q-8 0 -13 9l-243 586h-598l-244 -586q-4 -9 -13 -9h-72q-7 0 -12 6q-4 5 -1 13zM405 689h520l-260 626zM411 1673q-5 14 8 18l243 97q6 2 11 0l242 -100q13 -4 8 -18l-26 -62q-4 -13 -18 -7
l-212 87l-214 -85q-12 -5 -18 8z" />
    <glyph glyph-name="Atilde" unicode="&#xc3;" 
d="M608 1426q5 8 13 8h87q8 0 13 -8l584 -1407q3 -8 -1 -13q-4 -6 -12 -6h-72q-8 0 -13 9l-243 586h-598l-244 -586q-4 -9 -13 -9h-72q-7 0 -12 6q-4 5 -1 13zM379 1712q0 6 6 11q5 5 12 3q56 -16 133 -11q29 1 67 6l66 10q177 29 267 3q10 -3 10 -14v-66q0 -6 -5 -11
q-5 -4 -12 -2q-60 15 -134 11q-14 -1 -66 -7l-67 -10q-178 -27 -267 -2q-10 3 -10 13v66zM405 689h520l-260 626z" />
    <glyph glyph-name="Adieresis" unicode="&#xc4;" 
d="M608 1426q5 8 13 8h87q8 0 13 -8l584 -1407q3 -8 -1 -13q-4 -6 -12 -6h-72q-8 0 -13 9l-243 586h-598l-244 -586q-4 -9 -13 -9h-72q-7 0 -12 6q-4 5 -1 13zM405 689h520l-260 626zM502 1692q20 20 48 20t48 -20t20 -48q0 -29 -20 -49t-48 -20t-48 20t-20 49q0 28 20 48z
M730 1692q20 20 48 20t48 -20t20 -48q0 -29 -20 -49t-48 -20t-48 20t-20 49q0 28 20 48z" />
    <glyph glyph-name="Aring" unicode="&#xc5;" horiz-adv-x="1328" 
d="M24 19q-3 -8 1 -13q5 -6 12 -6h72q9 0 13 9l243 585h598l243 -585q4 -9 13 -9h72q7 0 11 6q5 6 2 13l-584 1405q-3 9 -13 9h-86q-10 0 -13 -9zM404 688l260 625l260 -625h-520zM546 1860q49 49 118 49t118 -49q48 -48 48 -117t-48 -118q-49 -49 -118 -49t-118 49
q-48 50 -48 118q0 69 48 117zM613 1794q-21 -21 -21 -51t21 -51t51 -21t51 21t21 51t-21 51t-51 21t-51 -21z" />
    <glyph glyph-name="AE" unicode="&#xc6;" horiz-adv-x="1709" 
d="M24 19q-3 -8 1 -13q5 -6 12 -6h72q9 0 13 9l244 586h388v-581q0 -14 14 -14h896q14 0 14 14v67q0 13 -14 13h-816v501h543q14 0 14 14v67q0 14 -14 14h-543v650h816q14 0 14 14v67q0 14 -14 14h-1043q-9 0 -12 -9zM405 690l251 604l20 46h78v-650h-349z" />
    <glyph glyph-name="Ccedilla" unicode="&#xc7;" horiz-adv-x="1243" 
d="M254 1209q190 202 464 224q243 19 446 -113q12 -8 4 -19l-37 -56q-8 -11 -19 -3q-177 113 -387 97q-238 -19 -404 -196q-166 -178 -169 -417q-1 -127 47 -245q46 -111 133 -201q87 -87 199 -135q118 -50 244 -50q184 0 338 100q11 8 19 -4l37 -55q7 -12 -4 -19
q-178 -116 -390 -116q-150 0 -282 58q-127 54 -230 157q-100 102 -153 233q-55 135 -52 285q6 275 196 475zM642 -179h67q11 0 13 -11q4 -22 25 -35q20 -13 46 -5t34 34q9 27 -8 50q-16 22 -44 22h-33q-14 0 -14 13v114h95v-41q45 -15 73 -55q29 -42 28 -90q-1 -57 -44 -100
q-41 -42 -100 -44q-60 -2 -103 37q-43 37 -49 96q-2 15 14 15z" />
    <glyph glyph-name="Egrave" unicode="&#xc8;" horiz-adv-x="1109" 
d="M156 14q0 -14 14 -14h894q14 0 14 14v66q0 14 -14 14h-814v575h542q14 0 14 14v66q0 14 -14 14h-542v574h814q14 0 14 14v67q0 14 -14 14h-894q-14 0 -14 -14v-1404zM405 1653q-1 -13 12 -15l410 -61q13 -3 15 11l10 66q2 15 -11 16l-410 61q-14 2 -16 -12z" />
    <glyph glyph-name="Eacute" unicode="&#xc9;" horiz-adv-x="1109" 
d="M156 14q0 -14 14 -14h894q14 0 14 14v66q0 14 -14 14h-814v575h542q14 0 14 14v66q0 14 -14 14h-542v574h814q14 0 14 14v67q0 14 -14 14h-894q-14 0 -14 -14v-1404zM415 1588q2 -14 15 -11l410 61q14 2 12 15l-10 66q-2 14 -16 12l-410 -61q-13 -1 -11 -16z" />
    <glyph glyph-name="Ecircumflex" unicode="&#xca;" horiz-adv-x="632" 
d="M-150 14q0 -14 14 -14h894q14 0 14 14v66q0 14 -14 14h-814v575h542q14 0 14 13v67q0 14 -14 14h-542v574h814q14 0 14 14v67q0 13 -14 13h-894q-14 0 -14 -13v-1404zM75 1611q6 -13 18 -8l214 85l212 -87q14 -6 18 7l26 62q5 14 -8 18l-242 100q-5 2 -11 0l-243 -97
q-13 -4 -8 -18z" />
    <glyph glyph-name="Edieresis" unicode="&#xcb;" horiz-adv-x="1110" 
d="M156 14q0 -14 14 -14h895q14 0 14 14v67q0 13 -14 13h-815v575h543q14 0 14 14v67q0 14 -14 14h-543v575h815q14 0 14 14v66q0 14 -14 14h-895q-14 0 -14 -14v-1405zM485 1639q-20 20 -20 48t20 48t48 20t48 -20t20 -48t-20 -48t-48 -20t-48 20zM713 1639q-20 20 -20 48
t20 48t48 20t48 -20t20 -48t-20 -48t-48 -20t-48 20z" />
    <glyph glyph-name="Igrave" unicode="&#xcc;" horiz-adv-x="481" 
d="M26 1694q2 14 16 12l409 -61q14 -2 12 -16l-10 -66q-2 -14 -16 -12l-409 61q-14 2 -12 16zM192 14q0 -14 14 -14h67q14 0 14 14v1404q0 14 -14 14h-67q-14 0 -14 -14v-1404z" />
    <glyph glyph-name="Iacute" unicode="&#xcd;" horiz-adv-x="489" 
d="M39 1563q2 -14 16 -12l409 61q14 2 12 16l-10 66q-2 14 -16 12l-409 -61q-14 -2 -12 -16zM205 1418q0 14 14 14h67q14 0 14 -14v-1404q0 -14 -14 -14h-67q-14 0 -14 14v1404z" />
    <glyph glyph-name="Icircumflex" unicode="&#xce;" horiz-adv-x="470" 
d="M19 1673q-5 14 8 18l243 97q6 2 11 0l242 -100q13 -4 8 -18l-26 -62q-4 -13 -18 -7l-212 87l-214 -85q-12 -5 -18 8zM227 1418q0 14 14 14h67q14 0 14 -14v-1404q0 -14 -14 -14h-67q-14 0 -14 14v1404z" />
    <glyph glyph-name="Idieresis" unicode="&#xcf;" horiz-adv-x="417" 
d="M62 1691q20 20 48 20t48 -20t20 -48q0 -29 -20 -49t-48 -20t-48 20t-20 49q0 28 20 48zM176 1418q0 14 14 14h67q14 0 14 -14v-1404q0 -14 -14 -14h-67q-14 0 -14 14v1404zM290 1691q20 20 48 20t48 -20t20 -48q0 -29 -20 -49t-48 -20t-48 20t-20 49q0 28 20 48z" />
    <glyph glyph-name="Eth" unicode="&#xd0;" horiz-adv-x="1518" 
 />
    <glyph glyph-name="Ntilde" unicode="&#xd1;" horiz-adv-x="1325" 
d="M156 1418q0 15 14 15h2q6 0 11 -6l884 -1181v1173q0 14 14 14h66q14 0 14 -14v-1405q0 -14 -14 -14h-7q-6 0 -11 6l-879 1173v-1165q0 -14 -14 -14h-66q-14 0 -14 14v1404zM376 1731q0 6 5 11q6 4 12 3q56 -16 133 -11q29 1 67 6l66 10q175 28 266 2q11 -2 11 -13v-66
q0 -7 -6 -11q-4 -4 -12 -2q-60 15 -133 11q-29 -1 -66 -6l-67 -10q-176 -29 -266 -3q-10 3 -10 14v65z" />
    <glyph glyph-name="Ograve" unicode="&#xd2;" horiz-adv-x="1589" 
d="M111 995q56 130 154 228q99 99 228 153q133 57 278 57t279 -57q129 -54 228 -153t153 -228q57 -133 57 -279q0 -144 -57 -278q-54 -129 -153 -228q-98 -98 -228 -154q-135 -56 -279 -56q-143 0 -278 56q-130 56 -228 154t-154 228q-56 135 -56 278q0 144 56 279zM199 475
q46 -111 133 -198t198 -133q114 -49 241 -49q128 0 242 49q111 46 198 133t133 198q49 114 49 241q0 128 -49 242q-46 111 -133 198t-198 133q-114 49 -242 49q-127 0 -241 -49q-111 -46 -198 -133t-133 -198q-49 -114 -49 -242q0 -127 49 -241zM557 1716q2 14 16 12
l411 -62q14 -2 11 -15l-9 -67q-1 -13 -16 -11l-411 61q-14 2 -12 16z" />
    <glyph glyph-name="Oacute" unicode="&#xd3;" horiz-adv-x="1589" 
d="M111 995q56 130 154 228q99 99 228 153q133 57 278 57t279 -57q129 -54 228 -153t153 -228q57 -133 57 -279q0 -144 -57 -278q-54 -129 -153 -228q-98 -98 -228 -154q-135 -56 -279 -56q-143 0 -278 56q-130 56 -228 154t-154 228q-56 135 -56 278q0 144 56 279zM199 475
q46 -111 133 -198t198 -133q114 -49 241 -49q128 0 242 49q111 46 198 133t133 198q49 114 49 241q0 128 -49 242q-46 111 -133 198t-198 133q-114 49 -242 49q-127 0 -241 -49q-111 -46 -198 -133t-133 -198q-49 -114 -49 -242q0 -127 49 -241zM547 1651q-1 13 12 15
l411 62q14 2 16 -12l9 -66q3 -14 -11 -16l-411 -61q-15 -2 -16 11z" />
    <glyph glyph-name="Ocircumflex" unicode="&#xd4;" horiz-adv-x="1593" 
d="M112 998q54 130 154 228q98 100 228 154q134 57 279 57q147 0 280 -57q130 -54 228 -154q100 -98 154 -228q57 -133 57 -280q0 -146 -57 -279q-54 -130 -154 -228q-98 -100 -228 -154q-133 -57 -280 -57q-145 0 -279 57q-130 54 -228 154q-100 98 -154 228
q-57 133 -57 279t57 280zM199 476q46 -112 134 -198q86 -88 198 -134q114 -49 242 -49q129 0 243 49q112 46 198 134q88 86 134 198q49 114 49 242q0 129 -49 243q-46 112 -134 198q-86 88 -198 134q-114 49 -243 49q-128 0 -242 -49q-112 -46 -198 -134q-88 -86 -134 -198
q-49 -114 -49 -243q0 -128 49 -242zM517 1644q-5 14 8 18l244 97q5 2 10 0l244 -100q13 -4 7 -18l-25 -62q-4 -13 -18 -8l-213 88l-214 -85q-14 -6 -18 7z" />
    <glyph glyph-name="Otilde" unicode="&#xd5;" horiz-adv-x="1593" 
d="M112 998q54 130 154 228q98 100 228 154q134 57 279 57q147 0 280 -57q130 -54 228 -154q100 -98 154 -228q57 -133 57 -280q0 -146 -57 -279q-54 -130 -154 -228q-98 -100 -228 -154q-133 -57 -280 -57q-145 0 -279 57q-130 54 -228 154q-100 98 -154 228
q-57 133 -57 279t57 280zM199 476q46 -112 134 -198q86 -88 198 -134q114 -49 242 -49q129 0 243 49q112 46 198 134q88 86 134 198q49 114 49 242q0 129 -49 243q-46 112 -134 198q-86 88 -198 134q-114 49 -243 49q-128 0 -242 -49q-112 -46 -198 -134q-88 -86 -134 -198
q-49 -114 -49 -243q0 -128 49 -242zM492 1694q0 6 6 11q4 4 12 2q60 -15 133 -11q15 1 67 7l67 10q174 28 268 2q10 -1 10 -13v-66q0 -6 -6 -11q-4 -4 -12 -2q-60 15 -134 11q-14 -1 -66 -7l-67 -10q-174 -28 -268 -2q-10 1 -10 13v66z" />
    <glyph glyph-name="Odieresis" unicode="&#xd6;" horiz-adv-x="1593" 
d="M112 998q54 130 154 228q98 100 228 154q134 57 279 57q147 0 280 -57q130 -54 228 -154q100 -98 154 -228q57 -133 57 -280q0 -146 -57 -279q-54 -130 -154 -228q-98 -100 -228 -154q-133 -57 -280 -57q-145 0 -279 57q-130 54 -228 154q-100 98 -154 228
q-57 133 -57 279t57 280zM199 476q46 -112 134 -198q86 -88 198 -134q114 -49 242 -49q129 0 243 49q112 46 198 134q88 86 134 198q49 114 49 242q0 129 -49 243q-46 112 -134 198q-86 88 -198 134q-114 49 -243 49q-128 0 -242 -49q-112 -46 -198 -134q-88 -86 -134 -198
q-49 -114 -49 -243q0 -128 49 -242zM610 1676q22 20 49 20q28 0 48 -20q21 -20 21 -48q0 -30 -21 -49q-20 -20 -48 -20q-27 0 -49 20q-20 20 -20 49q0 28 20 48zM839 1676q22 20 49 20q28 0 48 -20q21 -20 21 -48q0 -30 -21 -49q-20 -20 -48 -20q-27 0 -49 20q-20 20 -20 49
q0 28 20 48z" />
    <glyph glyph-name="multiply" unicode="&#xd7;" horiz-adv-x="663" 
d="M157 496q10 -10 20 0l155 155l155 -155q10 -10 19 0l48 47q9 10 0 19l-155 155l155 155q9 10 0 20l-48 47q-9 10 -19 0l-155 -155l-155 155q-10 10 -20 0l-47 -47q-10 -10 0 -20l155 -155l-155 -155q-10 -9 0 -19z" />
    <glyph glyph-name="Oslash" unicode="&#xd8;" horiz-adv-x="1575" 
d="M33 713q0 144 56 277q54 128 153 227t227 153q133 56 277 56t277 -56q108 -45 192 -121l68 68q10 9 19 0l48 -48q9 -9 0 -19l-68 -68q76 -84 121 -192q56 -133 56 -277t-56 -277q-54 -128 -153 -227t-227 -153q-133 -56 -277 -56t-277 56q-108 45 -192 121l-68 -68
q-10 -9 -20 0l-47 47q-9 10 0 20l68 68q-76 84 -121 192q-56 133 -56 277zM127 713q0 -127 49 -241q37 -88 101 -161l871 871q-73 64 -161 101q-114 49 -241 49t-241 -49q-108 -45 -196 -133t-133 -196q-49 -114 -49 -241zM344 244q73 -64 161 -101q114 -49 241 -49t241 49
q108 45 196 133t133 196q49 114 49 241t-49 241q-37 88 -101 161z" />
    <glyph glyph-name="Ugrave" unicode="&#xd9;" horiz-adv-x="1226" 
d="M135 1423q0 14 14 14h67q13 0 13 -14v-943q0 -154 105 -266q107 -113 258 -119q160 -6 276 105q115 111 115 271v952q0 14 14 14h66q14 0 14 -14v-952q0 -199 -143 -337q-143 -140 -342 -134q-192 6 -325 147q-132 141 -132 334v942zM392 1778q1 13 16 11l410 -61
q14 -2 12 -16l-10 -66q-1 -13 -16 -11l-410 61q-14 2 -12 15z" />
    <glyph glyph-name="Uacute" unicode="&#xda;" horiz-adv-x="1226" 
d="M135 471q0 -199 143 -337q143 -140 342 -134q192 6 325 147q132 141 132 334v942q0 14 -14 14h-67q-13 0 -13 -14v-943q0 -154 -105 -266q-107 -113 -258 -119q-160 -6 -276 105q-115 111 -115 271v952q0 14 -14 14h-66q-14 0 -14 -14v-952zM392 1646q1 -13 16 -11
l410 61q14 2 12 15l-10 67q-1 13 -16 11l-410 -61q-14 -2 -12 -16z" />
    <glyph glyph-name="Ucircumflex" unicode="&#xdb;" horiz-adv-x="1225" 
d="M135 1421q0 14 14 14h67q13 0 13 -14v-941q0 -154 105 -266q105 -114 257 -119q161 -6 276 105t115 271v950q0 14 14 14h67q13 0 13 -14v-950q0 -199 -142 -338t-343 -133q-191 6 -324 147q-132 141 -132 334v940zM350 1759q-5 14 8 18l243 97q6 2 11 0l242 -100
q13 -4 7 -18l-25 -61q-4 -13 -18 -8l-212 87l-213 -85q-14 -5 -18 8z" />
    <glyph glyph-name="Udieresis" unicode="&#xdc;" horiz-adv-x="1225" 
d="M135 1422q0 13 14 13h67q13 0 13 -13v-942q0 -154 105 -266q105 -114 257 -119q161 -6 276 105t115 271v951q0 13 14 13h67q13 0 13 -13v-951q0 -199 -142 -338t-343 -133q-191 6 -324 147q-132 141 -132 334v941zM438 1792q20 20 48 20t48 -20t20 -49q0 -28 -20 -48
t-48 -20t-48 20t-20 48q0 29 20 49zM666 1792q20 20 48 20t48 -20t20 -49q0 -28 -20 -48t-48 -20t-48 20t-20 48q0 29 20 49z" />
    <glyph glyph-name="Yacute" unicode="&#xdd;" horiz-adv-x="800" 
d="M-28 1414q-4 7 0 14q5 8 12 8h79q8 0 12 -7l360 -574l361 574q4 7 12 7h79q7 0 12 -8q4 -7 0 -14l-408 -648l-9 -15v-737q0 -14 -14 -14h-67q-13 0 -13 14v739zM212 1625q-2 14 11 15l411 62q14 2 16 -12l9 -66q2 -15 -11 -16l-411 -61q-14 -2 -16 12z" />
    <glyph glyph-name="Thorn" unicode="&#xde;" horiz-adv-x="1120" 
 />
    <glyph glyph-name="germandbls" unicode="&#xdf;" horiz-adv-x="1251" 
 />
    <glyph glyph-name="agrave" unicode="&#xe0;" horiz-adv-x="849" 
d="M138 99q29 -39 73 -63q40 -21 86 -29q88 -14 165 4q82 20 140 69q34 28 63 68q6 -63 15 -136q2 -12 13 -12h67q15 0 14 16q-6 46 -17 164q-9 106 -9 186q0 37 1 60l1 49l-1 49q-2 60 -7 98q-18 107 -77 168q-78 80 -229 80q-105 0 -196 -41q-28 -12 -60 -34l-21 -15
q-10 -8 -15 -13q-10 -10 0 -20l49 -45q10 -9 19 -1q7 7 11 10q9 5 16 11q25 15 47 24q68 30 150 30q112 0 161 -52q57 -57 58 -210l-15 1q-24 2 -38 3q-8 0 -23 1t-22 1q-50 1 -108 -2q-67 -4 -130 -19q-86 -22 -142 -66q-37 -30 -57 -69q-22 -39 -25 -89q-6 -108 43 -176z
M233 365q39 31 107 48q52 13 114 17q44 3 101 1q53 -2 78 -4q4 -1 11 -1t10 -1v-30v-29v-30l-5 -19q-14 -51 -34 -87q-30 -52 -68 -80q-48 -37 -106 -50t-127 -1q-69 13 -100 55q-31 41 -28 115q3 58 47 96zM220 1151q2 14 16 12l410 -61q14 -2 11 -16l-9 -66
q-2 -14 -16 -12l-410 61q-14 2 -12 16z" />
    <glyph glyph-name="aacute" unicode="&#xe1;" horiz-adv-x="849" 
d="M138 99q29 -39 73 -63q40 -21 86 -29q88 -14 165 4q82 20 140 69q34 28 63 68q6 -63 15 -136q2 -12 13 -12h67q15 0 14 16q-6 46 -17 164q-9 106 -9 186q0 37 1 60l1 49l-1 49q-2 60 -7 98q-18 107 -77 168q-78 80 -229 80q-105 0 -196 -41q-28 -12 -60 -34l-21 -15
q-10 -8 -15 -13q-10 -10 0 -20l49 -45q10 -9 19 -1q7 7 11 10q9 5 16 11q25 15 47 24q68 30 150 30q112 0 161 -52q57 -57 58 -210l-15 1q-24 2 -38 3q-8 0 -23 1t-22 1q-50 1 -108 -2q-67 -4 -130 -19q-86 -22 -142 -66q-37 -30 -57 -69q-22 -39 -25 -89q-6 -108 43 -176z
M233 365q39 31 107 48q52 13 114 17q44 3 101 1q53 -2 78 -4q4 -1 11 -1t10 -1v-30v-29v-30l-5 -19q-14 -51 -34 -87q-30 -52 -68 -80q-48 -37 -106 -50t-127 -1q-69 13 -100 55q-31 41 -28 115q3 58 47 96zM210 1086q-2 14 12 16l410 61q14 2 16 -12l9 -66q3 -14 -11 -16
l-410 -61q-14 -2 -16 12z" />
    <glyph glyph-name="acircumflex" unicode="&#xe2;" horiz-adv-x="849" 
d="M137 99q28 -39 74 -63q39 -20 85 -29q88 -14 165 4q83 19 141 69q35 29 62 68q6 -63 15 -136q1 -12 14 -12h67q15 0 14 16q-10 84 -18 164q-9 106 -9 186q0 37 1 60l1 49v49q-2 63 -8 98q-16 107 -77 168q-78 80 -228 80q-106 0 -196 -41q-28 -12 -61 -34l-21 -15
q-10 -8 -15 -13q-10 -10 0 -20l50 -45q9 -9 18 -1q2 2 6 5.5t6 4.5q3 2 8.5 5.5t7.5 5.5q22 14 46 24q69 30 151 30q112 0 161 -52q55 -56 57 -210l-15 1q-19 1 -38 3q-7 0 -22 0.5t-22 1.5q-50 1 -109 -2q-65 -4 -130 -19q-87 -23 -141 -66q-39 -31 -58 -69
q-20 -39 -25 -89q-5 -108 43 -176zM179 1101q-5 14 8 18l248 99l248 -102q13 -4 7 -18l-25 -61q-4 -13 -18 -8l-212 87l-213 -85q-14 -5 -18 8zM233 365q39 31 107 48q52 13 114 17q44 3 100 1q53 -2 78 -4q4 -1 11 -1.5t11 -0.5l-1 -30v-29v-30l-4 -19q-13 -48 -35 -87
q-30 -52 -68 -80q-46 -37 -105 -50t-128 -1q-69 14 -99 55q-31 41 -28 115q1 58 47 96z" />
    <glyph glyph-name="atilde" unicode="&#xe3;" horiz-adv-x="849" 
d="M138 99q29 -39 73 -63q39 -20 85 -29q90 -14 165 4q83 19 141 69q34 28 63 68q4 -54 14 -136q1 -12 14 -12h67q15 0 14 16q-12 96 -17 164q-9 106 -9 186q0 37 1 60v49v49q-2 63 -8 98q-16 107 -76 168q-80 80 -229 80q-105 0 -196 -41q-28 -12 -61 -34l-21 -15
q-10 -8 -15 -13q-10 -10 0 -20l50 -45q9 -9 18 -1q2 2 6 5.5t6 4.5q3 2 8.5 5.5t7.5 5.5q30 18 46 25q70 29 151 29q112 0 161 -52q55 -55 58 -210l-15 1q-24 2 -38 3q-8 0 -23 0.5t-22 1.5q-50 1 -109 -2q-66 -4 -129 -19q-88 -22 -142 -66q-37 -29 -58 -69t-24 -89
q-6 -108 43 -176zM154 1115q0 5 5 10q6 5 12 3q60 -15 134 -11q29 1 66 6l67 10q176 29 266 3q10 -3 10 -14v-65q0 -6 -5 -11q-6 -4 -12 -3q-60 15 -134 11q-29 -2 -66 -6l-67 -10q-176 -29 -266 -3q-10 3 -10 14v66zM233 365q39 31 107 48q45 12 114 17q44 3 100 1
q52 -2 78 -4q3 -1 11 -1t11 -1v-30l-1 -29l1 -30l-5 -19q-14 -51 -34 -87q-30 -52 -68 -80q-48 -37 -106 -50q-59 -13 -128 -1q-69 14 -99 55q-31 41 -28 115q1 58 47 96z" />
    <glyph glyph-name="adieresis" unicode="&#xe4;" horiz-adv-x="848" 
d="M138 99q29 -41 73 -63q39 -20 85 -29q88 -14 165 4q82 20 140 69q35 29 63 67q4 -54 14 -135q2 -12 14 -12h67q15 0 14 15q-12 98 -17 164q-9 107 -9 186v60l1 49v49q-2 63 -8 98q-16 105 -76 168q-78 80 -229 80q-105 0 -195 -41q-34 -15 -61 -34q-4 -3 -11 -8.5
t-10 -7.5l-15 -12q-10 -10 1 -20l49 -46q9 -8 18 0l12 9q10 8 16 12q22 14 46 24q69 29 150 29q111 0 161 -51q57 -58 58 -210l-15 1q-24 2 -38 3q-8 1 -23 1t-22 1q-50 1 -108 -2q-67 -4 -130 -19q-89 -23 -141 -65q-37 -31 -58 -70q-21 -41 -24 -89q-6 -108 43 -175z
M233 364q39 31 107 48q45 12 114 17q42 3 100 1q53 -2 77 -4q3 0 10.5 -1t11.5 -1v-30l-1 -29l1 -29l-5 -20q-13 -49 -34 -86q-29 -51 -68 -81q-49 -36 -106 -49q-58 -13 -127 -1q-69 14 -99 55q-31 41 -28 114q1 60 47 96zM252 1111q0 29 19 48q20 20 49 20q28 0 48 -20
t20 -48t-20 -48t-48 -20q-29 0 -49 20q-19 19 -19 48zM596 1159q20 -20 20 -48t-20 -48t-49 -20q-28 0 -48 20t-20 48t20 48t48 20q29 0 49 -20z" />
    <glyph glyph-name="aring" unicode="&#xe5;" horiz-adv-x="850" 
d="M138 99q29 -39 73 -63q40 -21 86 -29q88 -14 165 4q82 19 141 69q34 28 63 68q4 -54 14 -136q2 -12 14 -12h67q15 0 14 16q-12 96 -17 164q-9 106 -9 187q0 37 1 60v48v50q-2 61 -8 98q-16 107 -76 168q-80 80 -230 80q-105 0 -196 -41q-28 -12 -60 -34l-21 -15
q-10 -8 -15 -13q-10 -10 0 -20l49 -45q10 -9 19 -1q3 3 11 9q2 2 8 6t8 6q25 15 47 24q68 30 150 30q113 0 162 -52q56 -57 57 -210l-15 1q-30 2 -37 2q-32 2 -45 2q-62 2 -109 -1q-67 -4 -130 -19q-86 -22 -142 -66q-38 -30 -57 -70q-22 -40 -25 -89q-6 -108 43 -176z
M234 365q39 33 106 49q46 11 115 16q55 3 100 2q52 -2 78 -5q4 -1 11 -1.5t11 -0.5l-1 -30v-28v-30l-4 -20q-14 -51 -34 -87q-27 -48 -69 -80q-46 -37 -106 -50q-58 -13 -127 -1q-69 14 -100 56q-31 41 -28 114q3 60 48 96zM602 1174q0 -69 -49 -118q-48 -49 -117 -49
t-118 49t-49 118t49 118t118 49t117 -49q49 -49 49 -118zM363 1174q0 -30 22 -51q21 -21 51 -21q28 0 51 21q21 21 21 51t-21 51q-23 21 -51 21q-30 0 -51 -21q-22 -21 -22 -51z" />
    <glyph glyph-name="ae" unicode="&#xe6;" horiz-adv-x="1496" 
d="M97 99q28 -40 74 -63q39 -20 85 -29q88 -14 165 4q82 20 140 69q36 30 62 67q6 -63 15 -135q2 -12 14 -12h67q15 0 13 15q-11 106 -14 136q63 -72 145 -110q88 -41 183 -41q117 0 218 58q100 58 159 159l-82 47q-44 -77 -125 -124q-79 -46 -170 -46q-115 0 -207 71
q-90 71 -120 179l729 63v34q0 176 -121 301q-123 126 -296 126q-107 2 -199 -50q-91 -50 -147 -136q-20 64 -62 107q-78 79 -228 79q-107 0 -196 -40q-34 -16 -60 -34q-4 -3 -11 -8.5t-10 -7.5l-15 -12q-11 -10 0 -21l50 -45q9 -8 18 0q5 4 12 9q10 8 16 11q26 17 46 25
q69 29 150 29q112 0 161 -51q56 -57 57 -210l-15 1q-21 1 -37 3q-8 0 -23 0.5t-22 1.5q-50 1 -108 -2q-67 -4 -130 -19q-87 -22 -141 -66q-39 -31 -58 -69q-21 -41 -24 -89q-6 -107 42 -175zM193 364q37 31 106 48q45 12 114 17q44 3 100 1q52 -2 78 -4q3 -1 10 -1.5
t11 -0.5l1 -8l-1 -25v-26v-29l-4 -20q-12 -45 -34 -87q-27 -47 -68 -80q-49 -36 -106 -49q-58 -13 -127 -1q-69 14 -99 55q-31 41 -28 114q1 58 47 96zM707 437l1 24q9 136 100 224q92 89 222 89t218 -78q90 -79 103 -203z" />
    <glyph glyph-name="ccedilla" unicode="&#xe7;" horiz-adv-x="789" 
d="M145 161q108 -135 278 -159v-96q0 -14 14 -14h34q18 0 29 -14t6 -32q-5 -21 -25 -26q-16 -4 -29 3q-12 7 -17 22q-3 10 -13 10h-68q-16 0 -14 -15q8 -56 52 -90q46 -34 105 -24q37 8 66 36t36 66q11 50 -14 92q-23 41 -67 58v21q110 8 200 65q12 7 4 20l-38 55
q-8 11 -18 4q-82 -51 -180 -51q-145 0 -246 104q-101 105 -95 250q5 135 102 229q97 96 231 99q101 2 187 -51q11 -8 19 4l37 55q8 13 -4 20q-131 82 -288 63q-151 -20 -257 -129q-107 -111 -120 -262q-17 -176 93 -313z" />
    <glyph glyph-name="egrave" unicode="&#xe8;" horiz-adv-x="1017" 
d="M198 745q122 127 299 125q174 -2 295 -127t121 -300v-22q0 -13 -12 -14l-719 -63q31 -109 121 -179q92 -71 208 -71q88 0 164 43q79 45 124 116q8 12 19 5l57 -33q13 -7 5 -19q-58 -95 -158 -151q-98 -55 -211 -55q-180 0 -308 128q-127 127 -127 307q0 183 122 310z
M816 494q-13 124 -103 203q-88 79 -218 79q-138 0 -231 -97q-92 -95 -94 -241zM279 1147q2 14 16 12l411 -54q14 -1 12 -15l-9 -66q-1 -14 -15 -12l-411 53q-13 1 -12 15z" />
    <glyph glyph-name="eacute" unicode="&#xe9;" horiz-adv-x="1017" 
d="M198 745q122 127 299 125q174 -2 295 -127t121 -300v-22q0 -13 -12 -14l-719 -63q31 -109 121 -179q92 -71 208 -71q88 0 164 43q79 45 124 116q8 12 19 5l57 -33q13 -7 5 -19q-58 -95 -158 -151q-98 -55 -211 -55q-180 0 -308 128q-127 127 -127 307q0 183 122 310z
M816 494q-13 124 -103 203q-88 79 -218 79q-138 0 -231 -97q-92 -95 -94 -241zM271 1090q-1 14 12 15l411 54q14 1 15 -12l9 -67q2 -14 -12 -15l-411 -53q-14 -2 -16 12z" />
    <glyph glyph-name="ecircumflex" unicode="&#xea;" horiz-adv-x="1017" 
d="M198 745q122 127 299 125q174 -2 295 -127t121 -300v-22q0 -13 -12 -14l-719 -62q32 -110 121 -180q92 -71 208 -71q88 0 165 43q77 44 123 116q8 12 19 5l58 -33q12 -8 5 -19q-60 -95 -159 -151q-98 -55 -211 -55q-180 0 -308 128q-127 127 -127 307q0 183 122 310z
M817 495q-15 123 -104 202q-88 79 -218 79q-138 0 -231 -97q-92 -95 -94 -241zM239 1061q-5 14 7 18l243 100q5 2 10 0l244 -97q12 -4 7 -18l-24 -62q-4 -13 -18 -8l-213 85l-213 -87q-12 -5 -18 8z" />
    <glyph glyph-name="edieresis" unicode="&#xeb;" horiz-adv-x="1017" 
d="M198 745q122 127 299 125q174 -2 295 -127t121 -300v-22q0 -13 -12 -14l-719 -62q32 -110 121 -180q92 -71 208 -71q88 0 165 43q77 44 123 116q8 12 19 5l58 -33q12 -8 5 -19q-60 -95 -159 -151q-98 -55 -211 -55q-180 0 -308 128q-127 127 -127 307q0 183 122 310z
M817 495q-15 123 -104 202q-88 79 -218 79q-138 0 -231 -97q-92 -95 -94 -241zM332 1148q20 20 49 20q28 0 48 -20t20 -49q0 -28 -20 -48t-48 -20q-29 0 -49 20t-20 48q0 29 20 49zM560 1148q20 20 49 20q28 0 48 -20t20 -49q0 -28 -20 -48t-48 -20q-29 0 -49 20t-20 48
q0 29 20 49z" />
    <glyph glyph-name="igrave" unicode="&#xec;" horiz-adv-x="477" 
d="M20 1148q2 14 15 12l412 -53q14 -2 12 -16l-9 -66q-2 -13 -15 -12l-412 53q-14 2 -12 16zM188 857q0 14 14 14h67q13 0 13 -14v-843q0 -14 -13 -14h-67q-14 0 -14 14v843z" />
    <glyph glyph-name="iacute" unicode="&#xed;" horiz-adv-x="477" 
d="M11 1091q-2 14 12 16l412 53q13 2 15 -12l9 -66q2 -14 -12 -16l-412 -53q-13 -1 -15 12zM188 857q0 14 14 14h67q13 0 13 -14v-843q0 -14 -13 -14h-67q-14 0 -14 14v843z" />
    <glyph glyph-name="icircumflex" unicode="&#xee;" horiz-adv-x="479" 
d="M-9 1063q-5 14 8 18l243 99q5 2 10 0l244 -96q13 -6 7 -18l-24 -63q-4 -12 -18 -7l-214 84l-212 -87q-14 -5 -18 8zM200 858q0 13 14 13h67q14 0 14 -13v-844q0 -14 -14 -14h-67q-14 0 -14 14v844z" />
    <glyph glyph-name="idieresis" unicode="&#xef;" horiz-adv-x="391" 
d="M30 1117q20 20 49 20q28 0 48 -20q20 -22 20 -49q0 -28 -20 -48t-48 -20q-29 0 -49 20t-20 48q0 27 20 49zM145 856q0 14 14 14h67q14 0 14 -14v-842q0 -14 -14 -14h-67q-14 0 -14 14v842zM258 1117q20 20 49 20q28 0 48 -20q20 -22 20 -49q0 -28 -20 -48t-48 -20
q-29 0 -49 20t-20 48q0 27 20 49z" />
    <glyph glyph-name="eth" unicode="&#xf0;" horiz-adv-x="1006" 
d="M84 406q2 -169 121 -287q121 -119 288 -119q169 0 289 120t120 289q0 103 -50 195v2q-11 20 -31 47l-204 319h175q14 0 14 14v66q0 14 -14 14h-235l-233 363q-4 6 -11 6h-79q-8 0 -12 -7t0 -14l223 -348h-171q-14 0 -14 -14v-66q0 -14 14 -14h232l110 -173
q-58 19 -123 19q-169 0 -289 -120t-120 -289v-3zM178 409q0 131 93 222q91 93 222 93q76 0 144 -35t112 -97l18 -28l2 -3l1 -2q38 -71 38 -150q0 -129 -92 -223q-94 -92 -223 -92q-130 0 -222 92q-91 91 -93 221v2z" />
    <glyph glyph-name="ntilde" unicode="&#xf1;" horiz-adv-x="904" 
d="M106 14q0 -14 14 -14h66q14 0 14 14v486l1 21v16l1 7l1 8q2 14 4 22q7 31 19 56q16 34 43 64q32 33 73 54q46 23 97 26h6h7h3h3h8h7l6 -1h6l7 -1q31 -5 53 -14q54 -22 92 -61q38 -40 57 -94q8 -28 11 -53q1 -5 1 -14t1 -13v-31q-1 -37 -1 -119v-55v-26v-25
q-1 -88 -1 -220v-33q0 -14 14 -14h67q14 0 14 14v33q-1 59 -1 220v106q-1 25 -1 58v61v31q0 15 -2 37q-5 40 -16 72q-26 72 -79 127q-52 55 -125 82q-34 13 -72 18l-9 1l-9 1l-10 1h-8h-8h-10h-8h-9q-67 -4 -131 -37q-56 -29 -96 -74l-6 -7v114q0 13 -14 13h-66
q-14 0 -14 -13v-844zM173 1114q0 6 5 11q5 4 12 2q60 -15 133 -11q15 1 67 7l66 10q178 27 267 2q10 -3 10 -13v-66q0 -6 -6 -11q-4 -4 -12 -2q-60 15 -133 11q-14 -1 -66 -7l-67 -10q-174 -28 -266 -2q-10 3 -10 13v66z" />
    <glyph glyph-name="ograve" unicode="&#xf2;" horiz-adv-x="1050" 
d="M204 742q128 128 307 128q180 0 308 -128q127 -127 127 -307q0 -181 -127 -308t-308 -127q-180 0 -307 127q-128 128 -128 308q0 179 128 307zM171 435q0 -141 100 -241q99 -100 240 -100t241 100t100 241t-100 240q-100 100 -241 100t-240 -100q-100 -99 -100 -240z
M296 1146q2 14 16 12l411 -53q14 -2 12 -16l-9 -66q-2 -13 -15 -12l-411 53q-14 2 -12 16z" />
    <glyph glyph-name="oacute" unicode="&#xf3;" horiz-adv-x="1050" 
d="M204 127q127 -127 307 -127q181 0 308 127t127 308q0 180 -127 307q-128 128 -308 128q-179 0 -307 -128t-128 -307q0 -180 128 -308zM171 435q0 141 100 240q99 100 240 100t241 -100q100 -99 100 -240t-100 -241t-241 -100t-240 100q-100 100 -100 241zM296 1023
q2 -14 16 -12l411 53q14 2 12 16l-9 66q-2 14 -15 12l-411 -53q-14 -2 -12 -16z" />
    <glyph glyph-name="ocircumflex" unicode="&#xf4;" horiz-adv-x="1047" 
d="M203 740q127 127 306 127q180 0 307 -127t127 -306q0 -180 -127 -307t-307 -127q-179 0 -306 127t-127 307q0 179 127 306zM269 194q100 -100 240 -100q141 0 240 100q100 99 100 240q0 140 -100 240q-99 99 -240 99q-139 0 -240 -99q-99 -100 -99 -240q0 -141 99 -240z
M255 1084q-6 14 7 18l243 96q5 2 10 0l242 -99q12 -4 7 -18l-25 -61q-4 -13 -18 -8l-212 87l-212 -84q-14 -6 -18 7z" />
    <glyph glyph-name="otilde" unicode="&#xf5;" horiz-adv-x="1050" 
d="M204 742q128 128 307 128q180 0 308 -128q127 -127 127 -307q0 -181 -127 -308t-308 -127q-180 0 -307 127q-128 128 -128 308q0 179 128 307zM171 435q0 -141 100 -241q99 -100 240 -100t241 100t100 241t-100 240q-100 100 -241 100t-240 -100q-100 -99 -100 -240z
M231 1114q0 6 6 10q5 4 12 3q60 -15 133 -11q28 2 66 6l67 10q176 29 266 3q10 -3 10 -14v-65q0 -6 -5 -11q-6 -5 -12 -3q-56 16 -133 11q-29 -1 -67 -6l-67 -10q-176 -29 -266 -3q-10 3 -10 14v66z" />
    <glyph glyph-name="odieresis" unicode="&#xf6;" horiz-adv-x="1010" 
d="M164 128q-128 128 -128 307t128 307t307 128t307 -128t128 -307t-128 -307t-307 -128t-307 128zM131 435q0 -141 99 -241q100 -100 241 -100t241 100t100 241t-100 241q-100 99 -241 99t-241 -99q-99 -100 -99 -241zM309 1038q-20 20 -20 48t20 48t48 20t48 -20t20 -48
t-20 -48t-48 -20t-48 20zM537 1038q-20 20 -20 48t20 48t48 20t48 -20t20 -48t-20 -48t-48 -20t-48 20z" />
    <glyph glyph-name="divide" unicode="&#xf7;" horiz-adv-x="760" 
d="M100 654q0 -14 13 -14h533q14 0 14 14v66q0 14 -14 14h-533q-13 0 -13 -14v-66zM428 517q20 -20 20 -48t-20 -48t-48 -20q-29 0 -49 20t-20 48t20 48t49 20q28 0 48 -20zM428 953q20 -20 20 -48t-20 -48t-48 -20q-29 0 -49 20t-20 48t20 48t49 20q28 0 48 -20z" />
    <glyph glyph-name="oslash" unicode="&#xf8;" horiz-adv-x="1040" 
d="M195 741q127 127 307 127q140 0 249 -77l42 48q9 11 20 2l50 -44q10 -9 1 -20l-43 -49q115 -122 115 -294q0 -180 -127 -307t-307 -127q-140 0 -249 78l-42 -49q-9 -10 -19 -1l-51 44q-10 9 -1 19l43 49q-115 124 -115 294q0 180 127 307zM245 212l443 507
q-80 55 -186 55q-141 0 -240 -99q-100 -100 -100 -241q0 -127 83 -222zM316 149q80 -55 186 -55q141 0 240 100q100 100 100 240q0 128 -83 223z" />
    <glyph glyph-name="ugrave" unicode="&#xf9;" horiz-adv-x="939" 
d="M113 824q1 -59 1 -221v-51v-56q0 -82 1 -119v-32v-17q0 -13 1 -18q4 -38 15 -73q24 -73 77 -130q52 -57 125 -84q38 -15 72 -19l18 -2l19 -2h8h4h5l18 1q70 5 131 36q58 30 97 73l4 5l4 5v-106q0 -14 14 -14h67q14 0 14 14v844q0 14 -14 14h-67q-14 0 -14 -14v-476
l-1 -41q0 -8 -1 -15v-7q-1 -3 -1 -9q0 -4 -2 -11t-2 -11q-6 -29 -19 -56q-17 -35 -44 -64q-32 -33 -73 -54q-48 -23 -98 -26h-14h-14l-13 1l-13 2q-28 5 -53 15q-53 20 -92 62t-55 96q-8 28 -11 54q-1 7 -1 27v32q1 37 1 119v56v26v25q0 162 1 221v34q0 14 -14 14h-67
q-14 0 -14 -14v-34zM245 1143q1 13 16 11l411 -53q14 -1 12 -15l-9 -67q-1 -13 -15 -11l-411 53q-13 1 -12 15z" />
    <glyph glyph-name="uacute" unicode="&#xfa;" horiz-adv-x="939" 
d="M113 824q1 -59 1 -221v-51v-56q0 -82 1 -119v-32v-17q0 -13 1 -18q4 -38 15 -73q24 -73 77 -130q52 -57 125 -84q38 -15 72 -19l18 -2l19 -2h8h4h5l18 1q70 5 131 36q58 30 97 73l4 5l4 5v-106q0 -14 14 -14h67q14 0 14 14v844q0 14 -14 14h-67q-14 0 -14 -14v-476
l-1 -41q0 -8 -1 -15v-7q-1 -3 -1 -9q0 -4 -2 -11t-2 -11q-6 -29 -19 -56q-17 -35 -44 -64q-32 -33 -73 -54q-48 -23 -98 -26h-14h-14l-13 1l-13 2q-28 5 -53 15q-53 20 -92 62t-55 96q-8 28 -11 54q-1 7 -1 27v32q1 37 1 119v56v26v25q0 162 1 221v34q0 14 -14 14h-67
q-14 0 -14 -14v-34zM237 1086q-1 14 12 15l411 53q14 2 15 -11l9 -67q2 -14 -12 -15l-411 -53q-15 -2 -16 11z" />
    <glyph glyph-name="ucircumflex" unicode="&#xfb;" horiz-adv-x="935" 
d="M111 577l1 -26v-55v-120v-31v-17q0 -3 0.5 -9.5t1.5 -9.5q3 -39 15 -73q24 -74 76 -129q52 -57 125 -84q38 -15 72 -19l18 -2l19 -2h8h4h5l18 1q70 5 131 36q58 30 97 73l4 5l4 5v-106q0 -14 14 -14h66q14 0 14 14v843q0 14 -14 14h-66q-14 0 -14 -14v-475l-2 -41v-16
l-1 -7q0 -5 -1 -8q-1 -8 -3 -22q-6 -27 -20 -57q-15 -32 -43 -63q-31 -34 -74 -54q-48 -23 -97 -26h-14h-14l-13 1l-13 2q-28 5 -53 15q-51 19 -91 62q-40 41 -56 96q-9 30 -10 53q-1 7 -1 28v31v120v55v26v25q1 89 1 221v33q0 14 -14 14h-67q-13 0 -13 -14v-33v-221v-25z
M202 1096q-5 14 8 18l243 96q5 2 10 0l242 -99q13 -4 8 -18l-26 -62q-4 -12 -18 -7l-211 87l-213 -85q-14 -5 -18 8z" />
    <glyph glyph-name="udieresis" unicode="&#xfc;" horiz-adv-x="939" 
d="M113 825q0 -133 1 -221v-26v-26v-55v-120v-31q0 -13 1 -18q0 -13 1 -18q5 -39 15 -73q24 -73 77 -130q52 -57 125 -84q38 -15 72 -19l18 -2l19 -2h8h4h5l18 1q70 5 131 36q58 30 97 73l4 5l4 5v-106q0 -14 14 -14h67q14 0 14 14v845q0 13 -14 13h-67q-14 0 -14 -13v-477
l-1 -41q0 -8 -1 -15v-7q-1 -3 -1 -9q0 -4 -2 -11t-2 -11q-6 -29 -19 -56q-17 -35 -44 -64q-32 -33 -73 -54q-48 -23 -98 -26h-14h-14l-13 1l-13 2q-28 5 -53 15q-53 20 -92 62q-38 41 -56 96q-9 30 -10 54q-1 7 -1 28v31v120q1 17 1 55v26v26v221l1 33q0 14 -14 14h-67
q-14 0 -14 -14v-33zM298 1144q20 20 48 20q29 0 49 -20t20 -48q0 -29 -20 -49t-49 -20q-28 0 -48 20t-20 49q0 28 20 48zM526 1144q20 20 48 20q29 0 49 -20t20 -48q0 -29 -20 -49t-49 -20q-28 0 -48 20t-20 49q0 28 20 48z" />
    <glyph glyph-name="yacute" unicode="&#xfd;" horiz-adv-x="866" 
d="M20 852q-3 7 2 13q4 7 11 7h73q9 0 12 -9l309 -744l299 744q4 9 13 9h72q8 0 12 -7q4 -6 1 -12l-494 -1230q-3 -8 -13 -8h-72q-7 0 -11 6q-5 6 -2 13l145 359zM207 1019q1 -13 15 -12l412 54q14 1 12 15l-8 67q-2 14 -16 12l-412 -54q-14 -1 -12 -15z" />
    <glyph glyph-name="thorn" unicode="&#xfe;" horiz-adv-x="1010" 
 />
    <glyph glyph-name="ydieresis" unicode="&#xff;" horiz-adv-x="873" 
d="M20 856q-3 7 1 14q5 6 11 6h74q9 0 12 -9l312 -751l302 751q4 9 13 9h73q8 0 12 -6q4 -7 1 -13l-499 -1241q-3 -9 -13 -9h-73q-6 0 -11 6q-4 5 -2 13l146 363zM261 1174q20 20 49 20t49 -20t20 -49q0 -28 -20 -48q-20 -21 -49 -21q-30 0 -49 21q-20 20 -20 48q0 29 20 49
zM492 1174q20 20 49 20q28 0 48 -20q21 -20 21 -49t-21 -48q-19 -21 -48 -21t-49 21q-20 20 -20 48q0 29 20 49z" />
    <glyph glyph-name="circumflex" unicode="&#x2c6;" horiz-adv-x="821" 
d="M109 1040q-9 10 0 20l292 291q9 10 19 0l291 -291q10 -10 0 -20l-47 -47q-9 -9 -19 0l-235 235l-234 -235q-10 -9 -19 0z" />
    <glyph glyph-name="tilde" unicode="&#x2dc;" horiz-adv-x="761" 
d="M100 1267q0 6 5 11q5 4 12 2q62 -15 134 -11q14 1 66 7l67 10q178 27 267 2q10 -3 10 -13v-66q0 -7 -6 -11q-4 -4 -12 -2q-60 15 -133 11q-15 -1 -67 -7l-66 -10q-175 -28 -267 -2q-10 1 -10 13v66z" />
    <glyph glyph-name="uni2000" unicode="&#x2000;" horiz-adv-x="954" 
 />
    <glyph glyph-name="uni2001" unicode="&#x2001;" horiz-adv-x="1909" 
 />
    <glyph glyph-name="uni2002" unicode="&#x2002;" horiz-adv-x="954" 
 />
    <glyph glyph-name="uni2003" unicode="&#x2003;" horiz-adv-x="1909" 
 />
    <glyph glyph-name="uni2004" unicode="&#x2004;" horiz-adv-x="636" 
 />
    <glyph glyph-name="uni2005" unicode="&#x2005;" horiz-adv-x="477" 
 />
    <glyph glyph-name="uni2006" unicode="&#x2006;" horiz-adv-x="318" 
 />
    <glyph glyph-name="uni2007" unicode="&#x2007;" horiz-adv-x="318" 
 />
    <glyph glyph-name="uni2008" unicode="&#x2008;" horiz-adv-x="238" 
 />
    <glyph glyph-name="uni2009" unicode="&#x2009;" horiz-adv-x="381" 
 />
    <glyph glyph-name="uni200A" unicode="&#x200a;" horiz-adv-x="106" 
 />
    <glyph glyph-name="uni2010" unicode="&#x2010;" horiz-adv-x="520" 
d="M71 748q0 13 14 13h368q14 0 14 -13v-67q0 -14 -14 -14h-368q-14 0 -14 14v67z" />
    <glyph glyph-name="uni2011" unicode="&#x2011;" horiz-adv-x="520" 
d="M71 748q0 13 14 13h368q14 0 14 -13v-67q0 -14 -14 -14h-368q-14 0 -14 14v67z" />
    <glyph glyph-name="figuredash" unicode="&#x2012;" horiz-adv-x="520" 
d="M71 748q0 13 14 13h368q14 0 14 -13v-67q0 -14 -14 -14h-368q-14 0 -14 14v67z" />
    <glyph glyph-name="endash" unicode="&#x2013;" horiz-adv-x="596" 
d="M100 748q0 13 14 13h368q14 0 14 -13v-67q0 -14 -14 -14h-368q-14 0 -14 14v67z" />
    <glyph glyph-name="emdash" unicode="&#x2014;" horiz-adv-x="596" 
d="M100 748q0 13 14 13h368q14 0 14 -13v-67q0 -14 -14 -14h-368q-14 0 -14 14v67z" />
    <glyph glyph-name="quoteleft" unicode="&#x2018;" horiz-adv-x="249" 
d="M100 1518q0 13 14 13h21q14 0 14 -13v-232q0 -14 -14 -14h-21q-14 0 -14 14v232z" />
    <glyph glyph-name="quoteright" unicode="&#x2019;" horiz-adv-x="249" 
d="M100 1518q0 13 14 13h21q14 0 14 -13v-232q0 -14 -14 -14h-21q-14 0 -14 14v232z" />
    <glyph glyph-name="quotesinglbase" unicode="&#x201a;" horiz-adv-x="284" 
d="M100 164q0 8 8 8h68q8 0 8 -8v-154q0 -8 -8 -8h-9q-27 0 -47 20t-20 47v95z" />
    <glyph glyph-name="quotedblleft" unicode="&#x201c;" horiz-adv-x="351" 
d="M100 1518q0 13 14 13h21q14 0 14 -13v-232q0 -14 -14 -14h-21q-14 0 -14 14v232zM203 1518q0 13 13 13h22q13 0 13 -13v-232q0 -14 -13 -14h-22q-13 0 -13 14v232z" />
    <glyph glyph-name="quotedblright" unicode="&#x201d;" horiz-adv-x="351" 
d="M100 1518q0 13 14 13h21q14 0 14 -13v-232q0 -14 -14 -14h-21q-14 0 -14 14v232zM203 1518q0 13 13 13h22q13 0 13 -13v-232q0 -14 -13 -14h-22q-13 0 -13 14v232z" />
    <glyph glyph-name="quotedblbase" unicode="&#x201e;" horiz-adv-x="805" 
d="M100 156l119 125q46 0 89.5 -67t43.5 -150q0 -71 -33 -152t-83 -136.5t-94 -55.5v43q74 44 87 190q0 119 -129 161v42zM453 156l119 125q46 0 89.5 -67t43.5 -150q0 -71 -33 -152t-83 -136.5t-94 -55.5v43q74 44 87 190q0 119 -129 161v42z" />
    <glyph glyph-name="bullet" unicode="&#x2022;" horiz-adv-x="534" 
d="M149 601q-49 49 -49 118t49 118t118 49t118 -49t49 -118t-49 -118t-118 -49t-118 49zM216 770q-21 -21 -21 -51t21 -51t51 -21t51 21t21 51t-21 51t-51 21t-51 -21z" />
    <glyph glyph-name="ellipsis" unicode="&#x2026;" horiz-adv-x="1057" 
d="M120 117q20 20 49 20q28 0 48 -20t20 -49q0 -28 -20 -48t-48 -20q-29 0 -49 20t-20 48q0 29 20 49zM480 117q20 20 48 20q29 0 49 -20t20 -49q0 -28 -20 -48t-49 -20q-28 0 -48 20t-20 48q0 29 20 49zM840 117q20 20 48 20q29 0 49 -20t20 -49q0 -28 -20 -48t-49 -20
q-28 0 -48 20t-20 48q0 29 20 49z" />
    <glyph glyph-name="uni202F" unicode="&#x202f;" horiz-adv-x="381" 
 />
    <glyph glyph-name="guilsinglleft" unicode="&#x2039;" horiz-adv-x="577" 
d="M110 706q-10 10 0 20l291 291q10 10 19 0l47 -47q10 -10 0 -20l-234 -234l234 -234q10 -10 0 -20l-47 -47q-9 -10 -19 0z" />
    <glyph glyph-name="guilsinglright" unicode="&#x203a;" horiz-adv-x="577" 
d="M110 462q-10 10 0 20l234 234l-234 234q-10 10 0 20l47 47q9 10 19 0l291 -291q10 -10 0 -20l-291 -291q-10 -10 -19 0z" />
    <glyph glyph-name="uni205F" unicode="&#x205f;" horiz-adv-x="477" 
 />
    <glyph glyph-name="Euro" unicode="&#x20ac;" horiz-adv-x="925" 
d="M232 1046q126 130 303 144q159 12 292 -72q12 -7 4 -20l-37 -55q-8 -11 -19 -4q-105 66 -230 57q-151 -10 -252 -120q-41 -44 -68 -101h315q14 0 14 -14v-66q0 -14 -14 -14h-343q-5 -35 -5 -66q0 -29 5 -64h343q14 0 14 -14v-67q0 -13 -14 -13h-314q27 -60 78 -111
q113 -111 269 -111q111 0 203 58q11 8 19 -4l37 -55q7 -12 -4 -19q-116 -74 -255 -74q-202 0 -343 146q-141 147 -131 351q7 176 133 308z" />
    <glyph glyph-name="trademark" unicode="&#x2122;" horiz-adv-x="546" 
d="M100 1403q0 -3 3 -3h53v-178q0 -4 4 -4h28q3 0 3 4v178h53q4 0 4 3v28q0 4 -4 4h-141q-3 0 -3 -4v-28zM267 1222q0 -3 4 -3h28q3 0 3 3v143l52 -58q3 -3 5 0l52 58v-143q0 -3 4 -3h27q4 0 4 3v209q0 4 -4 4h-14q-1 0 -3 -2l-68 -76l-69 76q-2 2 -3 2h-14q-4 0 -4 -4v-209
z" />
    <glyph glyph-name="uni25FC" unicode="&#x25fc;" horiz-adv-x="875" 
d="M0 0v875h875v-875h-875z" />
    <glyph glyph-name="glyph1" horiz-adv-x="0" 
 />
    </font>
</defs>
</svg>
