<?xml version="1.0" standalone="no"?>
<!DOCTYPE svg PUBLIC "-//W3C//DTD SVG 1.1//EN" "http://www.w3.org/Graphics/SVG/1.1/DTD/svg11.dtd" >
<svg xmlns="http://www.w3.org/2000/svg" xmlns:xlink="http://www.w3.org/1999/xlink" version="1.1">
<metadata>
Created by FontForge 20170731 at Sun Jan 30 17:28:46 2022
 By Aleksey,,,
</metadata>
<defs>
<font id="Seiva-Regular" horiz-adv-x="250" >
  <font-face 
    font-family="Seiva"
    font-weight="400"
    font-stretch="normal"
    units-per-em="1000"
    panose-1="2 0 5 3 0 0 0 0 0 0"
    ascent="800"
    descent="-200"
    cap-height="614"
    bbox="33 -200 715 688"
    underline-thickness="50"
    underline-position="-150"
    unicode-range="U+000D-00A0"
  />
<missing-glyph horiz-adv-x="364" 
d="M33 0v666h265v-666h-265zM66 33h199v600h-199v-600z" />
    <glyph glyph-name=".notdef" horiz-adv-x="364" 
d="M33 0v666h265v-666h-265zM66 33h199v600h-199v-600z" />
    <glyph glyph-name=".null" 
 />
    <glyph glyph-name=".null" 
 />
    <glyph glyph-name="nonmarkingreturn" horiz-adv-x="333" 
 />
    <glyph glyph-name="CR" unicode="&#xd;" 
 />
    <glyph glyph-name="space" unicode=" " 
 />
    <glyph glyph-name="A" unicode="A" horiz-adv-x="647" 
d="M273 628q5 5 48 5t49 -6q10 -12 34 -91q3 -9 6.5 -20.5t5.5 -19t3 -9.5q6 -15 10 -32q5 -22 19.5 -54.5t20.5 -51.5q81 -242 86 -256q38 -99 38 -110q0 -8 -20.5 -16.5t-33.5 -8.5q-4 0 -6 2q-9 9 -34 98q-15 53 -53 168t-50 152q-12 41 -27.5 57t-42.5 16
q-14 0 -30.5 -7t-23.5 -17q-5 -7 -48.5 -135t-56.5 -174q-8 -26 -37 -124q-11 -36 -16 -38h-2q-12 0 -30 6q-27 9 -27 16q0 11 39 117q17 44 89 261q11 31 58 186q24 76 32 86z" />
    <glyph glyph-name="A" unicode="a" horiz-adv-x="647" 
d="M273 628q5 5 48 5t49 -6q10 -12 34 -91q3 -9 6.5 -20.5t5.5 -19t3 -9.5q6 -15 10 -32q5 -22 19.5 -54.5t20.5 -51.5q81 -242 86 -256q38 -99 38 -110q0 -8 -20.5 -16.5t-33.5 -8.5q-4 0 -6 2q-9 9 -34 98q-15 53 -53 168t-50 152q-12 41 -27.5 57t-42.5 16
q-14 0 -30.5 -7t-23.5 -17q-5 -7 -48.5 -135t-56.5 -174q-8 -26 -37 -124q-11 -36 -16 -38h-2q-12 0 -30 6q-27 9 -27 16q0 11 39 117q17 44 89 261q11 31 58 186q24 76 32 86z" />
    <glyph glyph-name="B" unicode="B" horiz-adv-x="526" 
d="M117 631q110 2 136 2q98 0 131.5 -8.5t55.5 -33.5q34 -41 34 -85q0 -104 -56 -147q-33 -25 -33 -60q0 -25 39 -63q28 -27 39 -54t11 -71v-20q-2 -47 -12 -68t-44 -47l-31 -25l-164 1q-120 1 -145.5 3.5t-25.5 14.5q0 1 0.5 5t0.5 7q2 20 11 24q13 6 111 8q112 4 123 5
q94 15 102 108v12q0 46 -42 88l-27 26q-34 1 -102.5 1t-103.5 1l-11 13q-11 11 -11 26q0 24 31 33q14 4 71 4q131 0 162 30q26 26 32 77q0 2 0.5 6.5t0.5 6.5q0 33 -15.5 61t-41.5 41q-20 11 -84 14q-68 4 -118 4q-57 0 -70 5q-19 6 -19 27q0 8 1 12l3 14z" />
    <glyph glyph-name="B" unicode="b" horiz-adv-x="526" 
d="M117 631q110 2 136 2q98 0 131.5 -8.5t55.5 -33.5q34 -41 34 -85q0 -104 -56 -147q-33 -25 -33 -60q0 -25 39 -63q28 -27 39 -54t11 -71v-20q-2 -47 -12 -68t-44 -47l-31 -25l-164 1q-120 1 -145.5 3.5t-25.5 14.5q0 1 0.5 5t0.5 7q2 20 11 24q13 6 111 8q112 4 123 5
q94 15 102 108v12q0 46 -42 88l-27 26q-34 1 -102.5 1t-103.5 1l-11 13q-11 11 -11 26q0 24 31 33q14 4 71 4q131 0 162 30q26 26 32 77q0 2 0.5 6.5t0.5 6.5q0 33 -15.5 61t-41.5 41q-20 11 -84 14q-68 4 -118 4q-57 0 -70 5q-19 6 -19 27q0 8 1 12l3 14z" />
    <glyph glyph-name="C" unicode="C" horiz-adv-x="580" 
d="M142 579q58 58 103 71t154 13h26q60 0 75.5 -1.5t20.5 -6.5q8 -7 8 -25q0 -28 -18.5 -34.5t-108.5 -9.5q-100 -4 -120 -7q-45 -8 -81 -46q-32 -32 -46 -72.5t-16 -110.5v-21q0 -79 18 -142q13 -43 51 -77t83 -42q6 -1 58 -3.5t102 -5t54 -4.5q24 -10 24 -44q0 -1 -0.5 -4
t-0.5 -4l-3 -17q-49 0 -148 1t-148 1l-21 12q-22 12 -60 49.5t-54 64.5q-21 33 -27.5 57t-9.5 76q-4 78 -4 108q0 41 4 73q13 77 85 151z" />
    <glyph glyph-name="C" unicode="c" horiz-adv-x="580" 
d="M142 579q58 58 103 71t154 13h26q60 0 75.5 -1.5t20.5 -6.5q8 -7 8 -25q0 -28 -18.5 -34.5t-108.5 -9.5q-100 -4 -120 -7q-45 -8 -81 -46q-32 -32 -46 -72.5t-16 -110.5v-21q0 -79 18 -142q13 -43 51 -77t83 -42q6 -1 58 -3.5t102 -5t54 -4.5q24 -10 24 -44q0 -1 -0.5 -4
t-0.5 -4l-3 -17q-49 0 -148 1t-148 1l-21 12q-22 12 -60 49.5t-54 64.5q-21 33 -27.5 57t-9.5 76q-4 78 -4 108q0 41 4 73q13 77 85 151z" />
    <glyph glyph-name="D" unicode="D" horiz-adv-x="638" 
d="M81 653q12 2 77 2q190 0 226 -6q34 -7 53 -17t44 -34q74 -71 98 -149q7 -23 7 -124v-44q0 -60 -8 -86q-41 -131 -147 -185q-32 -16 -125 -16q-21 0 -27 1.5t-13 9.5q-11 11 -10 24q2 13 12.5 17.5t47.5 8.5q56 5 92 31t62 80q21 43 28 77.5t7 95.5q0 71 -9.5 106
t-38.5 72q-34 42 -59 55.5t-76 18.5q-39 3 -81 3q-76 0 -88 -8q-1 -1 -3 -2q-14 -8 -17 -25q-4 -25 -6 -219v-28q-2 -233 -8 -258q-7 -17 -22 -18h-7q-30 0 -37 30q-4 20 -4 267q0 243 4 279q2 21 7.5 29t20.5 12z" />
    <glyph glyph-name="D" unicode="d" horiz-adv-x="638" 
d="M81 653q12 2 77 2q190 0 226 -6q34 -7 53 -17t44 -34q74 -71 98 -149q7 -23 7 -124v-44q0 -60 -8 -86q-41 -131 -147 -185q-32 -16 -125 -16q-21 0 -27 1.5t-13 9.5q-11 11 -10 24q2 13 12.5 17.5t47.5 8.5q56 5 92 31t62 80q21 43 28 77.5t7 95.5q0 71 -9.5 106
t-38.5 72q-34 42 -59 55.5t-76 18.5q-39 3 -81 3q-76 0 -88 -8q-1 -1 -3 -2q-14 -8 -17 -25q-4 -25 -6 -219v-28q-2 -233 -8 -258q-7 -17 -22 -18h-7q-30 0 -37 30q-4 20 -4 267q0 243 4 279q2 21 7.5 29t20.5 12z" />
    <glyph glyph-name="E" unicode="E" horiz-adv-x="588" 
d="M82 645q15 3 225 3h207l11 -10q11 -11 11 -27q0 -13 -8 -24l-7 -10l-228 1q-169 0 -199 1t-36 7q-8 8 -8 23q0 17 8 25q7 7 24 11zM59 340l8 10h345l9 -9q10 -10 10 -22q0 -9 -6 -21l-6 -14h-352l-8 12q-7 10 -7 22q0 14 7 22zM75 53q5 1 210 1h70q104 0 123 -3.5
t22 -19.5q1 -3 1 -5q3 -13 -4 -30l-6 -14h-206q-206 0 -216 5q-17 9 -17 32q0 29 23 34z" />
    <glyph glyph-name="E" unicode="e" horiz-adv-x="588" 
d="M82 645q15 3 225 3h207l11 -10q11 -11 11 -27q0 -13 -8 -24l-7 -10l-228 1q-169 0 -199 1t-36 7q-8 8 -8 23q0 17 8 25q7 7 24 11zM59 340l8 10h345l9 -9q10 -10 10 -22q0 -9 -6 -21l-6 -14h-352l-8 12q-7 10 -7 22q0 14 7 22zM75 53q5 1 210 1h70q104 0 123 -3.5
t22 -19.5q1 -3 1 -5q3 -13 -4 -30l-6 -14h-206q-206 0 -216 5q-17 9 -17 32q0 29 23 34z" />
    <glyph glyph-name="F" unicode="F" horiz-adv-x="548" 
d="M70 658h6q6 1 12 1q4 0 17 -0.5t20 -0.5q22 -1 87.5 -2t122.5 -2.5t88 -3.5q42 -2 51 -3.5t14 -8.5q7 -8 7 -20q0 -10 -6 -16q-9 -8 -41 -10.5t-139 -2.5q-144 -1 -158 -8l-2 -1q-13 -6 -16 -21q-5 -25 -8 -255v-33q-3 -258 -7 -280q-5 -17 -16 -17h-8q-14 0 -26 5
q-11 6 -14.5 34.5t-3.5 141.5q0 19 0.5 77t0.5 97q1 302 8 315q5 12 11 14zM159 342q3 4 67 4h55q82 -1 101 -2.5t27 -7.5q11 -8 12 -25t-4 -22q-8 -6 -163 -6q-68 0 -77 3t-16 15.5t-7 24.5q0 11 5 16z" />
    <glyph glyph-name="F" unicode="f" horiz-adv-x="548" 
d="M70 658h6q6 1 12 1q4 0 17 -0.5t20 -0.5q22 -1 87.5 -2t122.5 -2.5t88 -3.5q42 -2 51 -3.5t14 -8.5q7 -8 7 -20q0 -10 -6 -16q-9 -8 -41 -10.5t-139 -2.5q-144 -1 -158 -8l-2 -1q-13 -6 -16 -21q-5 -25 -8 -255v-33q-3 -258 -7 -280q-5 -17 -16 -17h-8q-14 0 -26 5
q-11 6 -14.5 34.5t-3.5 141.5q0 19 0.5 77t0.5 97q1 302 8 315q5 12 11 14zM159 342q3 4 67 4h55q82 -1 101 -2.5t27 -7.5q11 -8 12 -25t-4 -22q-8 -6 -163 -6q-68 0 -77 3t-16 15.5t-7 24.5q0 11 5 16z" />
    <glyph glyph-name="G" unicode="G" horiz-adv-x="639" 
d="M321 672q30 2 139 2q86 0 97 -7q13 -9 13 -24q0 -7 -3 -13q-5 -9 -25 -12.5t-102 -7.5q-157 -7 -190 -24q-22 -11 -45.5 -36.5t-36.5 -52.5q-34 -75 -34 -142q0 -29 4 -56q17 -121 72 -182q30 -32 66 -42.5t129 -14.5q77 -2 85 -10t8 -19q0 -16 -15 -28q-14 -9 -64 -11
q-12 -1 -39 -1q-111 0 -149 12q-55 17 -104 79.5t-66 138.5q-7 31 -7 110t7 110q15 66 58 123t99 86q26 13 41 16.5t62 5.5zM395 323q26 3 38 3h3q16 0 70 -3.5t62 -5.5q12 -2 15 -19.5t3 -78.5q0 -67 -4.5 -84t-22.5 -17q-15 0 -25 13q-14 19 -23 76q-4 25 -23 34t-74 12
q-32 2 -40 4t-15 10q-9 11 -9 25q0 12 7 20q7 9 38 11z" />
    <glyph glyph-name="G" unicode="g" horiz-adv-x="639" 
d="M321 672q30 2 139 2q86 0 97 -7q13 -9 13 -24q0 -7 -3 -13q-5 -9 -25 -12.5t-102 -7.5q-157 -7 -190 -24q-22 -11 -45.5 -36.5t-36.5 -52.5q-34 -75 -34 -142q0 -29 4 -56q17 -121 72 -182q30 -32 66 -42.5t129 -14.5q77 -2 85 -10t8 -19q0 -16 -15 -28q-14 -9 -64 -11
q-12 -1 -39 -1q-111 0 -149 12q-55 17 -104 79.5t-66 138.5q-7 31 -7 110t7 110q15 66 58 123t99 86q26 13 41 16.5t62 5.5zM395 323q26 3 38 3h3q16 0 70 -3.5t62 -5.5q12 -2 15 -19.5t3 -78.5q0 -67 -4.5 -84t-22.5 -17q-15 0 -25 13q-14 19 -23 76q-4 25 -23 34t-74 12
q-32 2 -40 4t-15 10q-9 11 -9 25q0 12 7 20q7 9 38 11z" />
    <glyph glyph-name="H" unicode="H" horiz-adv-x="586" 
d="M56 664q6 8 30 8t33 -6l9 -6l-1 -127q0 -101 2.5 -124.5t15.5 -35.5q7 -5 25.5 -11t27.5 -6q3 0 4 1q3 2 108 2h61q46 0 58 5q22 9 26 30.5t5 132.5q2 123 8 136q6 9 20 9h9q37 0 37 -26v-19.5v-50t0.5 -70.5t0.5 -90.5v-101.5q0 -44 0.5 -105t0.5 -80q0 -97 -3.5 -122.5
t-16.5 -25.5q-2 0 -8.5 1t-10.5 1q-23 0 -28 5q-3 3 -5 122q-2 112 -7 133q-7 30 -33 43q-10 6 -29 7t-107 1h-60q-71 0 -86.5 -16t-15.5 -91v-66v-38q0 -75 -4 -90t-23 -15h-10q-21 0 -30 9l-9 8v330q0 329 6 339z" />
    <glyph glyph-name="H" unicode="h" horiz-adv-x="586" 
d="M56 664q6 8 30 8t33 -6l9 -6l-1 -127q0 -101 2.5 -124.5t15.5 -35.5q7 -5 25.5 -11t27.5 -6q3 0 4 1q3 2 108 2h61q46 0 58 5q22 9 26 30.5t5 132.5q2 123 8 136q6 9 20 9h9q37 0 37 -26v-19.5v-50t0.5 -70.5t0.5 -90.5v-101.5q0 -44 0.5 -105t0.5 -80q0 -97 -3.5 -122.5
t-16.5 -25.5q-2 0 -8.5 1t-10.5 1q-23 0 -28 5q-3 3 -5 122q-2 112 -7 133q-7 30 -33 43q-10 6 -29 7t-107 1h-60q-71 0 -86.5 -16t-15.5 -91v-66v-38q0 -75 -4 -90t-23 -15h-10q-21 0 -30 9l-9 8v330q0 329 6 339z" />
    <glyph glyph-name="I" unicode="I" horiz-adv-x="184" 
d="M52 610q4 4 27 4h12l35 -1l1 -296q0 -292 4 -330q2 -26 2 -30q0 -15 -7 -18.5t-32 -3.5q-35 0 -37 4t-2 169q0 195 -3 331q-2 124 -2 135q0 34 2 36z" />
    <glyph glyph-name="I" unicode="i" horiz-adv-x="184" 
d="M52 610q4 4 27 4h12l35 -1l1 -296q0 -292 4 -330q2 -26 2 -30q0 -15 -7 -18.5t-32 -3.5q-35 0 -37 4t-2 169q0 195 -3 331q-2 124 -2 135q0 34 2 36z" />
    <glyph glyph-name="J" unicode="J" horiz-adv-x="500" 
d="M396 626q9 3 19 3q24 0 30 -19q5 -13 5 -321q0 -306 -5 -331q-5 -26 -16 -31.5t-60 -7.5q-54 -3 -127 -3q-88 0 -136 4q-30 4 -40 9.5t-10 20.5v6q2 20 21.5 24t122.5 5l120 2l19 14q18 13 22 22q10 23 11 185q0 22 1 113q2 264 8 288q3 13 15 17z" />
    <glyph glyph-name="J" unicode="j" horiz-adv-x="500" 
d="M396 626q9 3 19 3q24 0 30 -19q5 -13 5 -321q0 -306 -5 -331q-5 -26 -16 -31.5t-60 -7.5q-54 -3 -127 -3q-88 0 -136 4q-30 4 -40 9.5t-10 20.5v6q2 20 21.5 24t122.5 5l120 2l19 14q18 13 22 22q10 23 11 185q0 22 1 113q2 264 8 288q3 13 15 17z" />
    <glyph glyph-name="K" unicode="K" horiz-adv-x="522" 
d="M64 645q5 8 30 8q23 0 29.5 -6t6.5 -30v-17q-1 -20 -1 -69q0 -167 6 -167q5 0 119 114q108 108 143 136q27 19 36 19q1 0 4.5 -0.5t5.5 -0.5q16 -2 22 -6q5 -4 5 -16q0 -15 -8 -27q-17 -29 -93.5 -104.5t-149.5 -135.5q-70 -58 -84 -82q-6 -10 -7 -152q-1 -100 -2.5 -122
t-7.5 -28q-10 -12 -31 -12q-6 0 -9 1q-8 2 -14 16q-9 17 -11.5 42t-2.5 99q0 91 1 161q4 361 13 379zM267 220q8 8 21 8h10q22 -2 30 -9q3 -3 33.5 -59t33.5 -59q8 -9 32.5 -57.5t25.5 -58.5q0 -1 0.5 -3.5t0.5 -3.5q0 -28 -20 -36q-3 -2 -9 -2q-17 0 -39 36q-14 24 -27 40
q-5 6 -18 29.5t-19 30.5q-8 11 -22.5 37t-14.5 30q0 3 -13 27q-13 22 -13 33q0 7 8 17z" />
    <glyph glyph-name="K" unicode="k" horiz-adv-x="522" 
d="M64 645q5 8 30 8q23 0 29.5 -6t6.5 -30v-17q-1 -20 -1 -69q0 -167 6 -167q5 0 119 114q108 108 143 136q27 19 36 19q1 0 4.5 -0.5t5.5 -0.5q16 -2 22 -6q5 -4 5 -16q0 -15 -8 -27q-17 -29 -93.5 -104.5t-149.5 -135.5q-70 -58 -84 -82q-6 -10 -7 -152q-1 -100 -2.5 -122
t-7.5 -28q-10 -12 -31 -12q-6 0 -9 1q-8 2 -14 16q-9 17 -11.5 42t-2.5 99q0 91 1 161q4 361 13 379zM267 220q8 8 21 8h10q22 -2 30 -9q3 -3 33.5 -59t33.5 -59q8 -9 32.5 -57.5t25.5 -58.5q0 -1 0.5 -3.5t0.5 -3.5q0 -28 -20 -36q-3 -2 -9 -2q-17 0 -39 36q-14 24 -27 40
q-5 6 -18 29.5t-19 30.5q-8 11 -22.5 37t-14.5 30q0 3 -13 27q-13 22 -13 33q0 7 8 17z" />
    <glyph glyph-name="L" unicode="L" horiz-adv-x="499" 
d="M54 610q6 19 30 19q12 0 20 -4q12 -6 15 -25q5 -32 7 -280v-47q2 -215 9 -241q4 -16 21 -28q3 -2 4 -3l19 -14l120 -2q103 -1 122.5 -5t21.5 -24v-7q0 -15 -10.5 -20.5t-44.5 -9.5q-25 -3 -102 -3q-175 0 -203 7q-19 5 -23.5 14t-6.5 49q-3 54 -3 294q0 319 4 330z" />
    <glyph glyph-name="L" unicode="l" horiz-adv-x="499" 
d="M54 610q6 19 30 19q12 0 20 -4q12 -6 15 -25q5 -32 7 -280v-47q2 -215 9 -241q4 -16 21 -28q3 -2 4 -3l19 -14l120 -2q103 -1 122.5 -5t21.5 -24v-7q0 -15 -10.5 -20.5t-44.5 -9.5q-25 -3 -102 -3q-175 0 -203 7q-19 5 -23.5 14t-6.5 49q-3 54 -3 294q0 319 4 330z" />
    <glyph glyph-name="M" unicode="M" horiz-adv-x="749" 
d="M582 649q10 7 23 7q25 0 33 -23q10 -32 32 -263.5t26 -349.5l2 -79l-14 -15q-14 -14 -29 -14q-23 0 -35 18.5t-18 63.5q-17 130 -41 466q-6 80 -6 117q0 34 6 48t21 24zM129 633q9 3 20 3q22 0 32 -10t10 -63q0 -63 -15 -238q-3 -41 -8 -99t-8 -96.5t-4 -53.5
q-7 -102 -14 -125q-13 -43 -42 -43q-26 0 -40 21q-7 10 -7 54q0 40 6 114q8 83 8 135q0 35 8 95q7 49 17 145.5t10 112.5q0 38 27 48zM352 619q12 11 24 11q11 0 20 -10q19 -21 24 -82.5t5 -285.5v-257l-9 -22q-18 -46 -42 -46t-39 46q-5 15 -6 60t-1 248q0 238 3 280t21 58
z" />
    <glyph glyph-name="M" unicode="m" horiz-adv-x="749" 
d="M582 649q10 7 23 7q25 0 33 -23q10 -32 32 -263.5t26 -349.5l2 -79l-14 -15q-14 -14 -29 -14q-23 0 -35 18.5t-18 63.5q-17 130 -41 466q-6 80 -6 117q0 34 6 48t21 24zM129 633q9 3 20 3q22 0 32 -10t10 -63q0 -63 -15 -238q-3 -41 -8 -99t-8 -96.5t-4 -53.5
q-7 -102 -14 -125q-13 -43 -42 -43q-26 0 -40 21q-7 10 -7 54q0 40 6 114q8 83 8 135q0 35 8 95q7 49 17 145.5t10 112.5q0 38 27 48zM352 619q12 11 24 11q11 0 20 -10q19 -21 24 -82.5t5 -285.5v-257l-9 -22q-18 -46 -42 -46t-39 46q-5 15 -6 60t-1 248q0 238 3 280t21 58
z" />
    <glyph glyph-name="N" unicode="N" horiz-adv-x="628" 
d="M503 648q16 17 28 17q9 0 18 -4q20 -8 24.5 -71t4.5 -317q0 -192 -2.5 -253t-10.5 -70q-8 -8 -21 -8q-20 0 -33 12l-13 12l1 144v130q0 85 -1 112q-2 71 -3 85t-6 15q-2 1 -7 1q-11 0 -24 -16t-55 -76q-19 -28 -60 -85.5t-48 -67.5q-71 -100 -134 -201
q-24 -39 -37.5 -53.5t-24.5 -14.5q-29 0 -38 24q-11 30 -11 372q0 198 2.5 255t12.5 64q8 7 22 7q16 0 29 -11l12 -11l1 -246q1 -257 14 -257q7 0 95 127q24 35 75.5 108t63.5 91q73 105 87 129q23 39 39 57z" />
    <glyph glyph-name="N" unicode="n" horiz-adv-x="628" 
d="M503 648q16 17 28 17q9 0 18 -4q20 -8 24.5 -71t4.5 -317q0 -192 -2.5 -253t-10.5 -70q-8 -8 -21 -8q-20 0 -33 12l-13 12l1 144v130q0 85 -1 112q-2 71 -3 85t-6 15q-2 1 -7 1q-11 0 -24 -16t-55 -76q-19 -28 -60 -85.5t-48 -67.5q-71 -100 -134 -201
q-24 -39 -37.5 -53.5t-24.5 -14.5q-29 0 -38 24q-11 30 -11 372q0 198 2.5 255t12.5 64q8 7 22 7q16 0 29 -11l12 -11l1 -246q1 -257 14 -257q7 0 95 127q24 35 75.5 108t63.5 91q73 105 87 129q23 39 39 57z" />
    <glyph glyph-name="O" unicode="O" horiz-adv-x="735" 
d="M430 608q-19 6 -47 6q-40 0 -82 -11t-65 -28q-26 -20 -55 -66t-45 -95q-10 -30 -10 -89q0 -41 6 -73q28 -132 97 -183q70 -52 142 -52q52 0 106 27q99 51 137 176q10 34 10 97q0 65 -8 96q-19 66 -47 100q-24 30 -64.5 57.5t-74.5 37.5zM295 673q14 2 57 2h30
q70 -1 99 -11t79 -48q32 -25 57 -50.5t25 -32.5q0 -6 14 -32q18 -32 22.5 -61t4.5 -113v-100l-13 -37q-43 -123 -91 -159q-20 -14 -63.5 -34.5t-67.5 -26.5q-46 -11 -83 -11q-66 0 -148 38q-30 14 -69 53q-38 38 -56 75q-39 81 -39 193q0 16 2 48q6 72 30 127q2 3 19 44
q13 32 79.5 79t111.5 57z" />
    <glyph glyph-name="O" unicode="o" horiz-adv-x="735" 
d="M430 608q-19 6 -47 6q-40 0 -82 -11t-65 -28q-26 -20 -55 -66t-45 -95q-10 -30 -10 -89q0 -41 6 -73q28 -132 97 -183q70 -52 142 -52q52 0 106 27q99 51 137 176q10 34 10 97q0 65 -8 96q-19 66 -47 100q-24 30 -64.5 57.5t-74.5 37.5zM295 673q14 2 57 2h30
q70 -1 99 -11t79 -48q32 -25 57 -50.5t25 -32.5q0 -6 14 -32q18 -32 22.5 -61t4.5 -113v-100l-13 -37q-43 -123 -91 -159q-20 -14 -63.5 -34.5t-67.5 -26.5q-46 -11 -83 -11q-66 0 -148 38q-30 14 -69 53q-38 38 -56 75q-39 81 -39 193q0 16 2 48q6 72 30 127q2 3 19 44
q13 32 79.5 79t111.5 57z" />
    <glyph glyph-name="P" unicode="P" horiz-adv-x="571" 
d="M76 678q17 6 142 6q106 0 143.5 -3.5t57.5 -14.5q66 -37 91 -125q7 -25 7 -82q0 -44 -5 -53q-17 -29 -38.5 -39.5t-65.5 -11.5h-24q-20 0 -28 8q-10 9 -10 23q0 9 4 16q8 14 59 18q25 2 35 10t10 26q0 99 -71 146l-16 11h-94q-68 0 -84.5 -1t-26.5 -7q-15 -7 -25 -27
q-8 -17 -8 -48q0 -36 1 -66q1 -52 1 -288q0 -144 -1 -170.5t-7 -34.5q-8 -11 -22 -12q-2 0 -6 -0.5t-5 -0.5q-18 0 -28 18q-5 10 -6.5 57t-3.5 288q-2 222 -2 239q0 46 0.5 68t5.5 33.5t6.5 12z" />
    <glyph glyph-name="P" unicode="p" horiz-adv-x="571" 
d="M76 678q17 6 142 6q106 0 143.5 -3.5t57.5 -14.5q66 -37 91 -125q7 -25 7 -82q0 -44 -5 -53q-17 -29 -38.5 -39.5t-65.5 -11.5h-24q-20 0 -28 8q-10 9 -10 23q0 9 4 16q8 14 59 18q25 2 35 10t10 26q0 99 -71 146l-16 11h-94q-68 0 -84.5 -1t-26.5 -7q-15 -7 -25 -27
q-8 -17 -8 -48q0 -36 1 -66q1 -52 1 -288q0 -144 -1 -170.5t-7 -34.5q-8 -11 -22 -12q-2 0 -6 -0.5t-5 -0.5q-18 0 -28 18q-5 10 -6.5 57t-3.5 288q-2 222 -2 239q0 46 0.5 68t5.5 33.5t6.5 12z" />
    <glyph glyph-name="Q" unicode="Q" horiz-adv-x="767" 
d="M571 536q-86 86 -177 86q-53 0 -112 -29q-76 -37 -122 -131q-21 -43 -27 -67.5t-6 -69.5q0 -186 122 -280q20 -16 50.5 -30t42.5 -14q4 0 5 1t5 43q3 40 8 49q9 14 34 14q4 0 10 -2q13 -6 18.5 -19t6.5 -44q3 -39 7 -41h3q15 0 58 24t67 46q44 40 68.5 104t24.5 135
q0 89 -38 163q-14 27 -48 62zM340 684q20 4 32 4h4q71 0 123 -18q38 -12 89.5 -49.5t62.5 -61.5q3 -8 9.5 -13.5t9.5 -13.5q4 -12 12 -25q33 -52 33 -186q0 -109 -21 -163q-37 -95 -80 -138q-13 -14 -59 -38t-88 -38l-42 -14l1 -49v-81h-74v131l-66 22q-56 19 -83.5 35.5
t-59.5 50.5q-46 49 -65 108q-25 75 -25 163q0 55 5.5 87.5t21.5 77.5q43 119 141 168q66 33 119 41z" />
    <glyph glyph-name="Q" unicode="q" horiz-adv-x="767" 
d="M571 536q-86 86 -177 86q-53 0 -112 -29q-76 -37 -122 -131q-21 -43 -27 -67.5t-6 -69.5q0 -186 122 -280q20 -16 50.5 -30t42.5 -14q4 0 5 1t5 43q3 40 8 49q9 14 34 14q4 0 10 -2q13 -6 18.5 -19t6.5 -44q3 -39 7 -41h3q15 0 58 24t67 46q44 40 68.5 104t24.5 135
q0 89 -38 163q-14 27 -48 62zM340 684q20 4 32 4h4q71 0 123 -18q38 -12 89.5 -49.5t62.5 -61.5q3 -8 9.5 -13.5t9.5 -13.5q4 -12 12 -25q33 -52 33 -186q0 -109 -21 -163q-37 -95 -80 -138q-13 -14 -59 -38t-88 -38l-42 -14l1 -49v-81h-74v131l-66 22q-56 19 -83.5 35.5
t-59.5 50.5q-46 49 -65 108q-25 75 -25 163q0 55 5.5 87.5t21.5 77.5q43 119 141 168q66 33 119 41z" />
    <glyph glyph-name="R" unicode="R" horiz-adv-x="572" 
d="M81 672q12 3 161 3h146l26 -13q107 -53 107 -208q0 -31 -4 -45.5t-17 -31.5q-20 -27 -82 -31q-9 -1 -23 -1q-27 0 -37 8t-10 28q0 15 10.5 21.5t39.5 8.5q33 3 44 10l12 7l-1 33q-2 86 -67 132l-16 12h-95q-83 0 -103.5 -5t-31.5 -28l-9 -17v-288v-111
q0 -144 -3.5 -173.5t-21.5 -29.5h-14q-18 0 -22 1.5t-10 11.5t-7 54.5t-2 293.5l-1 335l9 10q9 9 22 13zM347 185q11 8 21 8q12 0 22 -10q17 -16 70.5 -105t53.5 -102q0 -8 -13.5 -16.5t-25.5 -8.5q-11 0 -17 7t-33 48q-60 92 -76 118.5t-16 36.5q0 14 14 24z" />
    <glyph glyph-name="R" unicode="r" horiz-adv-x="572" 
d="M81 672q12 3 161 3h146l26 -13q107 -53 107 -208q0 -31 -4 -45.5t-17 -31.5q-20 -27 -82 -31q-9 -1 -23 -1q-27 0 -37 8t-10 28q0 15 10.5 21.5t39.5 8.5q33 3 44 10l12 7l-1 33q-2 86 -67 132l-16 12h-95q-83 0 -103.5 -5t-31.5 -28l-9 -17v-288v-111
q0 -144 -3.5 -173.5t-21.5 -29.5h-14q-18 0 -22 1.5t-10 11.5t-7 54.5t-2 293.5l-1 335l9 10q9 9 22 13zM347 185q11 8 21 8q12 0 22 -10q17 -16 70.5 -105t53.5 -102q0 -8 -13.5 -16.5t-25.5 -8.5q-11 0 -17 7t-33 48q-60 92 -76 118.5t-16 36.5q0 14 14 24z" />
    <glyph glyph-name="S" unicode="S" horiz-adv-x="655" 
d="M199 656q15 2 178 4l152 1l6 -8q5 -8 5 -23q0 -20 -8 -29l-8 -10l-137 1q-16 0 -46 0.5t-42 0.5q-58 0 -74 -2q-97 -14 -109 -102q-2 -14 -2 -21q0 -73 58 -107q22 -13 53.5 -16.5t118.5 -3.5q110 0 146.5 -7t67.5 -31q43 -35 43 -131v-23q-3 -58 -12 -84
q-24 -71 -92 -96q-18 -6 -44 -7t-156 -3q-24 0 -58 -0.5t-45 -0.5q-55 0 -68.5 3.5t-13.5 16.5v9q0 22 11 26.5t66 4.5q236 0 271 11q39 13 62 45.5t23 72.5q0 19 -6 38q-11 36 -52 63q-26 17 -53 20.5t-123 4.5q-97 2 -129.5 5.5t-55.5 16.5q-30 17 -54 69q-18 39 -18 91
q0 46 14 89.5t40 69.5q35 35 91 42z" />
    <glyph glyph-name="S" unicode="s" horiz-adv-x="655" 
d="M199 656q15 2 178 4l152 1l6 -8q5 -8 5 -23q0 -20 -8 -29l-8 -10l-137 1q-16 0 -46 0.5t-42 0.5q-58 0 -74 -2q-97 -14 -109 -102q-2 -14 -2 -21q0 -73 58 -107q22 -13 53.5 -16.5t118.5 -3.5q110 0 146.5 -7t67.5 -31q43 -35 43 -131v-23q-3 -58 -12 -84
q-24 -71 -92 -96q-18 -6 -44 -7t-156 -3q-24 0 -58 -0.5t-45 -0.5q-55 0 -68.5 3.5t-13.5 16.5v9q0 22 11 26.5t66 4.5q236 0 271 11q39 13 62 45.5t23 72.5q0 19 -6 38q-11 36 -52 63q-26 17 -53 20.5t-123 4.5q-97 2 -129.5 5.5t-55.5 16.5q-30 17 -54 69q-18 39 -18 91
q0 46 14 89.5t40 69.5q35 35 91 42z" />
    <glyph glyph-name="T" unicode="T" horiz-adv-x="648" 
d="M106 665q21 2 256 2h218l7 -9q7 -8 7 -24q0 -15 -7 -21q-18 -17 -104 -20q-53 -3 -69 -8q-27 -10 -44 -57q-7 -21 -7 -102q0 -98 1 -185l2 -264l-11 -9q-8 -8 -24 -8q-15 0 -27.5 7t-15.5 17q-3 9 -3 264v149q0 107 -7 127q-14 41 -34.5 53.5t-75.5 15.5q-61 3 -79.5 6
t-25.5 10q-9 9 -9 24q0 13 7 21q9 9 45 11z" />
    <glyph glyph-name="T" unicode="t" horiz-adv-x="648" 
d="M106 665q21 2 256 2h218l7 -9q7 -8 7 -24q0 -15 -7 -21q-18 -17 -104 -20q-53 -3 -69 -8q-27 -10 -44 -57q-7 -21 -7 -102q0 -98 1 -185l2 -264l-11 -9q-8 -8 -24 -8q-15 0 -27.5 7t-15.5 17q-3 9 -3 264v149q0 107 -7 127q-14 41 -34.5 53.5t-75.5 15.5q-61 3 -79.5 6
t-25.5 10q-9 9 -9 24q0 13 7 21q9 9 45 11z" />
    <glyph glyph-name="U" unicode="U" horiz-adv-x="609" 
d="M61 631q8 7 25 7q18 0 26 -7q9 -7 11 -38q3 -33 3 -204q0 -169 -3 -216q-4 -60 -4 -101q0 -6 -0.5 -15.5t-0.5 -13.5q0 -33 22 -40.5t116 -7.5h48q112 0 136.5 1t31.5 6q10 6 14 15q4 8 4 52q0 24 -4 104q-4 74 -4 251q0 139 3 169q2 30 12 38q8 7 25 7q18 0 26 -7l9 -8
l1 -274v-109q0 -251 -12 -279q-5 -12 -15 -22q-11 -9 -37 -9q-23 0 -58 4t-134 4q-100 0 -132 -4q-40 -5 -55 -5q-22 0 -33 8q-20 15 -26 64t-6 221v127l1 274z" />
    <glyph glyph-name="U" unicode="u" horiz-adv-x="609" 
d="M61 631q8 7 25 7q18 0 26 -7q9 -7 11 -38q3 -33 3 -204q0 -169 -3 -216q-4 -60 -4 -101q0 -6 -0.5 -15.5t-0.5 -13.5q0 -33 22 -40.5t116 -7.5h48q112 0 136.5 1t31.5 6q10 6 14 15q4 8 4 52q0 24 -4 104q-4 74 -4 251q0 139 3 169q2 30 12 38q8 7 25 7q18 0 26 -7l9 -8
l1 -274v-109q0 -251 -12 -279q-5 -12 -15 -22q-11 -9 -37 -9q-23 0 -58 4t-134 4q-100 0 -132 -4q-40 -5 -55 -5q-22 0 -33 8q-20 15 -26 64t-6 221v127l1 274z" />
    <glyph glyph-name="V" unicode="V" horiz-adv-x="678" 
d="M84 636q27 9 32 9q3 0 7 -4q12 -18 36 -104q14 -51 29.5 -99.5t35.5 -107.5t30 -90q23 -73 38 -93t46 -20q32 0 51 21q6 6 45 118.5t60 184.5q5 17 14 48q42 141 48 146l3 1h5q12 0 36.5 -8.5t24.5 -14.5q0 -13 -39 -122q-25 -67 -49 -141q-1 -4 -6.5 -20t-14 -40.5
t-15.5 -45.5q-28 -83 -47 -146.5t-34 -108.5l-21 -62q-19 -1 -57.5 -1t-57.5 -1l-7 12q-16 38 -27 85q-2 8 -5.5 15.5t-5.5 15.5q-6 28 -50 156q-7 25 -27 82t-28 84q-4 16 -13.5 42.5t-21.5 58t-16 43.5q-12 33 -16 42q-13 26 -13 47v2l1 2q3 5 29 14z" />
    <glyph glyph-name="V" unicode="v" horiz-adv-x="678" 
d="M84 636q27 9 32 9q3 0 7 -4q12 -18 36 -104q14 -51 29.5 -99.5t35.5 -107.5t30 -90q23 -73 38 -93t46 -20q32 0 51 21q6 6 45 118.5t60 184.5q5 17 14 48q42 141 48 146l3 1h5q12 0 36.5 -8.5t24.5 -14.5q0 -13 -39 -122q-25 -67 -49 -141q-1 -4 -6.5 -20t-14 -40.5
t-15.5 -45.5q-28 -83 -47 -146.5t-34 -108.5l-21 -62q-19 -1 -57.5 -1t-57.5 -1l-7 12q-16 38 -27 85q-2 8 -5.5 15.5t-5.5 15.5q-6 28 -50 156q-7 25 -27 82t-28 84q-4 16 -13.5 42.5t-21.5 58t-16 43.5q-12 33 -16 42q-13 26 -13 47v2l1 2q3 5 29 14z" />
    <glyph glyph-name="W" unicode="W" horiz-adv-x="746" 
d="M75 667q12 6 22 6q30 0 44 -43q5 -22 9 -75q16 -239 24 -288q18 -116 18 -252q0 -45 -4 -53q-9 -17 -37 -17t-38 16q-7 9 -11 70q-5 59 -15.5 147t-12.5 93q-1 4 -5 70q-6 96 -11 148q-7 81 -7 111q0 40 7 52q6 10 17 15zM633 667q7 5 20 5q23 0 36 -21q6 -11 6 -39
q0 -26 -1 -47q-4 -119 -26 -351t-32 -263q-8 -23 -33 -23q-8 0 -20 5q-17 8 -23.5 24t-6.5 53q0 11 2 59q15 230 40 470q8 73 14.5 96t23.5 32zM351 642q10 10 22 10q17 0 30.5 -23t17.5 -63q3 -22 3 -124q0 -17 -0.5 -65t-0.5 -79q-2 -205 -6.5 -259.5t-22.5 -73.5
q-9 -10 -18 -10q-10 0 -23 12q-9 9 -13 17.5t-9 33.5q-6 32 -6 144v161q2 269 8 287q7 21 18 32z" />
    <glyph glyph-name="W" unicode="w" horiz-adv-x="746" 
d="M75 667q12 6 22 6q30 0 44 -43q5 -22 9 -75q16 -239 24 -288q18 -116 18 -252q0 -45 -4 -53q-9 -17 -37 -17t-38 16q-7 9 -11 70q-5 59 -15.5 147t-12.5 93q-1 4 -5 70q-6 96 -11 148q-7 81 -7 111q0 40 7 52q6 10 17 15zM633 667q7 5 20 5q23 0 36 -21q6 -11 6 -39
q0 -26 -1 -47q-4 -119 -26 -351t-32 -263q-8 -23 -33 -23q-8 0 -20 5q-17 8 -23.5 24t-6.5 53q0 11 2 59q15 230 40 470q8 73 14.5 96t23.5 32zM351 642q10 10 22 10q17 0 30.5 -23t17.5 -63q3 -22 3 -124q0 -17 -0.5 -65t-0.5 -79q-2 -205 -6.5 -259.5t-22.5 -73.5
q-9 -10 -18 -10q-10 0 -23 12q-9 9 -13 17.5t-9 33.5q-6 32 -6 144v161q2 269 8 287q7 21 18 32z" />
    <glyph glyph-name="X" unicode="X" horiz-adv-x="677" 
d="M89 663q10 5 19 5q18 0 31 -15q7 -7 59 -89q56 -89 77 -118q29 -41 41 -61q11 -17 21 -17q8 0 15 7q12 11 70 93q7 10 53 86q60 98 88 105q1 0 2.5 0.5t2.5 0.5q10 0 26 -11q22 -13 22 -24q0 -13 -34 -62q-16 -22 -72 -107q-43 -66 -75 -101q-25 -29 -30 -38q-1 -3 -1 -8
q0 -21 21 -45q16 -17 63 -91q45 -70 96 -141q39 -55 39 -75q0 -9 -6 -15q-7 -5 -19 -5q-23 0 -43 11q-18 9 -31.5 24t-33.5 48q-29 48 -78 121l-55 84h-18q-12 0 -18 -3t-16 -15q-11 -11 -27 -43q-7 -17 -25 -45t-40 -59.5t-29 -42.5q-35 -52 -48.5 -66t-33.5 -18
q-2 0 -5 -0.5t-4 -0.5q-33 0 -39 15q-1 2 -1 7q0 18 21 47q21 32 75.5 110.5t73.5 106.5q15 23 34 45t19 33q0 2 -0.5 4t-0.5 4q-2 15 -31 50q-30 36 -91 127q-60 90 -80 114q-17 20 -17 29q0 1 0.5 3t0.5 3q3 18 32 33z" />
    <glyph glyph-name="X" unicode="x" horiz-adv-x="677" 
d="M89 663q10 5 19 5q18 0 31 -15q7 -7 59 -89q56 -89 77 -118q29 -41 41 -61q11 -17 21 -17q8 0 15 7q12 11 70 93q7 10 53 86q60 98 88 105q1 0 2.5 0.5t2.5 0.5q10 0 26 -11q22 -13 22 -24q0 -13 -34 -62q-16 -22 -72 -107q-43 -66 -75 -101q-25 -29 -30 -38q-1 -3 -1 -8
q0 -21 21 -45q16 -17 63 -91q45 -70 96 -141q39 -55 39 -75q0 -9 -6 -15q-7 -5 -19 -5q-23 0 -43 11q-18 9 -31.5 24t-33.5 48q-29 48 -78 121l-55 84h-18q-12 0 -18 -3t-16 -15q-11 -11 -27 -43q-7 -17 -25 -45t-40 -59.5t-29 -42.5q-35 -52 -48.5 -66t-33.5 -18
q-2 0 -5 -0.5t-4 -0.5q-33 0 -39 15q-1 2 -1 7q0 18 21 47q21 32 75.5 110.5t73.5 106.5q15 23 34 45t19 33q0 2 -0.5 4t-0.5 4q-2 15 -31 50q-30 36 -91 127q-60 90 -80 114q-17 20 -17 29q0 1 0.5 3t0.5 3q3 18 32 33z" />
    <glyph glyph-name="Y" unicode="Y" horiz-adv-x="515" 
d="M97 669q8 0 18 -9t16 -22q4 -9 67 -89q32 -41 53 -73q30 -45 42 -59q17 -20 30 -38q7 -10 11.5 -11t11.5 7q7 7 14 49q2 11 14.5 76.5t15.5 92.5q4 24 9.5 32t18.5 8q2 0 5.5 -0.5t6.5 -0.5q19 -2 25.5 -8.5t6.5 -23.5q0 -11 -1 -17q0 -7 -13 -98q-14 -101 -51 -312
q-29 -168 -39.5 -199t-37.5 -31q-20 0 -30 9l-10 9l13 73q14 80 18 100q14 76 14 104q0 10 -2 16q-9 23 -61 85q-43 52 -116 158q-35 49 -48 66q-43 57 -43 79q0 8 16.5 17.5t25.5 9.5z" />
    <glyph glyph-name="Y" unicode="y" horiz-adv-x="515" 
d="M97 669q8 0 18 -9t16 -22q4 -9 67 -89q32 -41 53 -73q30 -45 42 -59q17 -20 30 -38q7 -10 11.5 -11t11.5 7q7 7 14 49q2 11 14.5 76.5t15.5 92.5q4 24 9.5 32t18.5 8q2 0 5.5 -0.5t6.5 -0.5q19 -2 25.5 -8.5t6.5 -23.5q0 -11 -1 -17q0 -7 -13 -98q-14 -101 -51 -312
q-29 -168 -39.5 -199t-37.5 -31q-20 0 -30 9l-10 9l13 73q14 80 18 100q14 76 14 104q0 10 -2 16q-9 23 -61 85q-43 52 -116 158q-35 49 -48 66q-43 57 -43 79q0 8 16.5 17.5t25.5 9.5z" />
    <glyph glyph-name="Z" unicode="Z" horiz-adv-x="594" 
d="M54 -25q0 27 88 160.5t175.5 261.5t87.5 141q0 16 -23.5 19.5t-135.5 3.5q-138 0 -153 3q-31 7 -31 31q0 11 14 24t29 15q18 3 208 3t202 -3q27 -7 27 -31q-1 -30 -30 -70q-16 -20 -28 -41q-8 -13 -42 -64l-21 -31.5t-29.5 -44t-23.5 -35.5q-21 -31 -61 -86
q-6 -8 -45.5 -66.5t-54.5 -76.5q-17 -21 -17 -33q0 -8 9 -14q12 -7 113 -12q130 -6 171 -12t46 -19q2 -4 2 -12q0 -14 -11 -26q-10 -13 -60 -13q-49 0 -137 4q-56 2 -68 2q-46 0 -115 -11q-19 -3 -45 -3q-41 0 -41 36z" />
    <glyph glyph-name="Z" unicode="z" horiz-adv-x="594" 
d="M54 -25q0 27 88 160.5t175.5 261.5t87.5 141q0 16 -23.5 19.5t-135.5 3.5q-138 0 -153 3q-31 7 -31 31q0 11 14 24t29 15q18 3 208 3t202 -3q27 -7 27 -31q-1 -30 -30 -70q-16 -20 -28 -41q-8 -13 -42 -64l-21 -31.5t-29.5 -44t-23.5 -35.5q-21 -31 -61 -86
q-6 -8 -45.5 -66.5t-54.5 -76.5q-17 -21 -17 -33q0 -8 9 -14q12 -7 113 -12q130 -6 171 -12t46 -19q2 -4 2 -12q0 -14 -11 -26q-10 -13 -60 -13q-49 0 -137 4q-56 2 -68 2q-46 0 -115 -11q-19 -3 -45 -3q-41 0 -41 36z" />
    <glyph glyph-name="nbsp" unicode="&#xa0;" 
 />
  </font>
</defs>
</svg>
