<?xml version="1.0" encoding="utf-8"?>
<!-- Generator: Adobe Illustrator 25.2.1, SVG Export Plug-In . SVG Version: 6.00 Build 0)  -->
<svg version="1.1" id="Layer_1" xmlns="http://www.w3.org/2000/svg" xmlns:xlink="http://www.w3.org/1999/xlink" x="0px" y="0px"
	 viewBox="0 0 129.1394 197.811" enable-background="new 0 0 129.1394 197.811" xml:space="preserve">
<g>
	<path d="M115.5383,123.4331c-0.9897-4.6084-5.0635-7.9004-9.7769-7.9004H66.5042c-1.6105-9.0475-2.6548-21.5966-0.2291-37.7681
		c8.7139-1.8435,7.454-12.0339,3.8867-16.6348c-0.7659-0.9879-4.0485-2.2094-7.9333-3.3691
		c-2.6682-1.9755-5.5651-5.0237-7.3331-11.7701c-7.7647-2.809-16.384-0.2237-20.261,8.5867
		c-0.157,0.2958-0.2997,0.6025-0.4124,0.929l-0.1943,0.5632c-0.0189,0.0538-0.0373,0.1078-0.0558,0.162l-18.8014,54.5156
		L5.752,79.0359L0,80.7439l11.8074,39.7544l-2.2462,6.5129c-0.7425,2.1528-0.2854,4.4267,1.0122,6.1021
		c-0.1077-1.3563,0.0914-2.756,0.6545-4.0941l29.2334-69.4395c1.3789-3.2725,4.5635-5.3872,8.1133-5.3872
		c1.1748,0,2.3232,0.2324,3.4121,0.6909c4.4727,1.8833,6.5791,7.0532,4.6973,11.5249l-23.3232,55.4006
		c-0.0332,11.8011,11.8802,14.717,22.0446,13.7238h42.2759l11.6792,54.376c1.0078,4.6924,5.1543,7.9023,9.7671,7.9023
		c0.6953,0,1.4023-0.0732,2.1099-0.2246c5.3994-1.1602,8.8369-6.4775,7.6768-11.877L115.5383,123.4331z"/>
	<path d="M11.5789,57.8006c8.6786,14.3513,5.0967,19.4747,1.059,21.5562c-4.0377,2.0814,9.872,4.0688,13.5533-10.7462
		c2.3544-9.4749-7.0024-20.2581-8.8887-27.981c-1.6042-1.1871-3.0845-2.5947-4.3918-4.2217
		c-0.9594-1.194-1.7789-2.4551-2.4718-3.7609C6.3369,37.9532,4.3479,45.8433,11.5789,57.8006z"/>
	<ellipse transform="matrix(0.8414 -0.5404 0.5404 0.8414 -6.6292 20.4131)" cx="31.4635" cy="21.5008" rx="21.5" ry="21.5"/>
	<path d="M19.6359,141.2122c2.451,2.5965,5.7969,4.2638,9.5032,4.5908c-2.7295,0.4428-5.0006,2.3765-5.8452,5.0888l-14.1807,45.541
		l3.8184,1.1895l14.1807-45.541c0.4424-1.4204,1.7393-2.375,3.2275-2.375h45.917c1.6611,0,3.0635,1.1895,3.334,2.8291
		l7.4033,44.8184l3.9473-0.6523l-7.4033-44.8179c-0.4612-2.7941-2.4317-4.9838-4.9987-5.8128l6.3181,0.0272l0.0254-6
		l-54.4355-0.2339c-1.7361-0.0074-3.3682-0.5027-4.7498-1.3759C24.1346,140.131,21.9813,141.1325,19.6359,141.2122z"/>
	<path d="M54.5639,65.5162c1.3926-3.3086-0.1602-7.1196-3.4688-8.5127c-3.3105-1.3931-7.1201,0.1602-8.5137,3.4688l-29.2334,69.439
		c-1.3926,3.3086,0.1602,7.1196,3.4688,8.5127c0.8242,0.3467,1.6787,0.5107,2.5195,0.5107c2.5371,0,4.9473-1.4946,5.9941-3.9795
		L54.5639,65.5162z"/>
</g>
</svg>
